<?xml version="1.0" standalone="no"?>
<!DOCTYPE svg PUBLIC "-//W3C//DTD SVG 1.1//EN" "http://www.w3.org/Graphics/SVG/1.1/DTD/svg11.dtd" >
<!--
2013-9-30: Created.
-->
<svg>
<metadata>
Created by iconfont
</metadata>
<defs>

<font id="iconfont" horiz-adv-x="1024" >
  <font-face
    font-family="iconfont"
    font-weight="500"
    font-stretch="normal"
    units-per-em="1024"
    ascent="896"
    descent="-128"
  />
    <missing-glyph />
    
    <glyph glyph-name="x" unicode="x" horiz-adv-x="1001"
d="M281 543q-27 -1 -53 -1h-83q-18 0 -36.5 -6t-32.5 -18.5t-23 -32t-9 -45.5v-76h912v41q0 16 -0.5 30t-0.5 18q0 13 -5 29t-17 29.5t-31.5 22.5t-49.5 9h-133v-97h-438v97zM955 310v-52q0 -23 0.5 -52t0.5 -58t-10.5 -47.5t-26 -30t-33 -16t-31.5 -4.5q-14 -1 -29.5 -0.5
t-29.5 0.5h-32l-45 128h-439l-44 -128h-29h-34q-20 0 -45 1q-25 0 -41 9.5t-25.5 23t-13.5 29.5t-4 30v167h911zM163 247q-12 0 -21 -8.5t-9 -21.5t9 -21.5t21 -8.5q13 0 22 8.5t9 21.5t-9 21.5t-22 8.5zM316 123q-8 -26 -14 -48q-5 -19 -10.5 -37t-7.5 -25t-3 -15t1 -14.5
t9.5 -10.5t21.5 -4h37h67h81h80h64h36q23 0 34 12t2 38q-5 13 -9.5 30.5t-9.5 34.5q-5 19 -11 39h-368zM336 498v228q0 11 2.5 23t10 21.5t20.5 15.5t34 6h188q31 0 51.5 -14.5t20.5 -52.5v-227h-327z" />
    

    
    <glyph glyph-name="gouwuchekong" unicode="&#58882;" d="M332.8 105.472q19.456 0 36.864-7.168t30.208-19.968 20.48-30.208 7.68-36.864-7.68-36.864-20.48-30.208-30.208-20.48-36.864-7.68q-20.48 0-37.888 7.68t-30.208 20.48-20.48 30.208-7.68 36.864 7.68 36.864 20.48 30.208 30.208 19.968 37.888 7.168zM758.784 103.424q19.456 0 37.376-7.168t30.72-19.968 20.48-30.208 7.68-36.864-7.68-36.864-20.48-30.208-30.72-20.48-37.376-7.68-36.864 7.68-30.208 20.48-20.48 30.208-7.68 36.864 7.68 36.864 20.48 30.208 30.208 19.968 36.864 7.168zM930.816 685.056q28.672 0 44.544-7.68t22.528-18.944 6.144-24.064-3.584-22.016-13.312-37.888-22.016-62.976-23.552-68.096-18.944-53.248q-13.312-40.96-33.28-56.832t-49.664-15.872l-35.84 0-65.536 0-86.016 0-96.256 0-253.952 0 14.336-92.16 517.12 0q49.152 0 49.152-41.984 0-20.48-9.728-35.84t-38.4-14.336l-49.152 0-94.208 0-118.784 0-119.808 0-99.328 0-55.296 0q-20.48 0-34.304 9.216t-23.04 24.064-14.848 32.256-8.704 32.768q-1.024 6.144-5.632 29.696t-11.264 58.88-14.848 78.848-16.384 87.552q-19.456 103.424-44.032 230.4l-76.8 0q-15.36 0-25.6 7.68t-16.896 18.432-9.216 23.04-2.56 22.528q0 20.48 13.824 33.792t37.376 12.288l103.424 0q20.48 0 32.768-6.144t19.456-15.36 10.24-18.944 5.12-16.896q2.048-8.192 4.096-23.04t4.096-30.208q3.072-18.432 6.144-38.912l700.416 0zM892.928 593.92l-641.024 2.048 35.84-185.344 535.552-1.024z"  horiz-adv-x="1028" />

    
    <glyph glyph-name="tiptingzhi" unicode="&#58988;" d="M515.614977 42.030647l14.519263-14.502295 69.333882 69.314669-14.519263 14.517645L515.614977 42.030647zM-0.110522-212.004093l1023.348127 0L1023.237606 811.320525-0.110522-212.004093zM546.763648 10.909859l-13.371067-13.369495-42.592772 42.581818 96.074992 96.071056 42.576399-42.591027-13.371067-13.369495-5.148464 5.16565-69.333882-69.321832L546.763648 10.909859zM483.540177 113.842183l7.258608 18.721387c11.699939-3.189645 23.145065-6.904247 34.269882-11.175527l58.54677 58.543348 12.221847-12.221346L463.669826 35.546979l-12.221847 12.221346 58.056586 58.054207C500.979052 108.879148 492.318457 111.546907 483.540177 113.842183zM588.967548-147.030289l-110.20436 110.199845c5.656045-17.388019 9.926477-34.133402 12.796968-50.238195-7.512399 3.679809-14.839571 6.921643-21.963098 9.723455-10.197664 46.084595-28.024388 89.908706-53.48222 131.410935l17.573957 10.70276c11.259899-20.696368 21.035944-40.650839 29.306644-59.869552l138.955325-138.966005L588.967548-147.030289zM672.041925-59.38309c-5.97533-6.246261-14.061827-14.178931-24.259491-23.86964-5.334714 3.815909-11.326417 7.765871-17.944409 11.850909 9.166129 7.359618 17.252626 14.551414 24.258467 21.573341 7.377317 7.395434 6.871783 15.261589-1.536046 23.668049l-23.685392 23.700795-49.463532-49.461505-12.221847 12.221346 100.649358 100.637048 12.221847-12.222369-37.426911-37.432541 27.703057-27.685549C685.091661-31.192028 685.666782-45.507058 672.041925-59.38309zM675.671741 65.342586l-17.759183 17.758456L545.411805-29.402265l17.759183-17.758456-13.370043-13.370519-29.982053 29.981848 139.24084 139.243321 29.982053-29.980825L675.671741 65.342586zM747.875092 40.511038l-15.666436 15.648398 33.814492 33.813107L644.357288 211.63444l16.037912 16.037255 121.666882-121.662921 46.796687 46.794769-157.186272 157.180855 16.425761 16.425088 56.148042-56.146764 63.982795 63.97915 15.278588-15.276938-63.982795-63.97915 85.759643-85.756129 74.111895 74.107835 15.64904-15.665795L747.875092 40.511038z"  horiz-adv-x="1024" />

    
    <glyph glyph-name="tipzhengchang" unicode="&#58989;" d="M786.826791 268.615199l-85.515063-85.512582 16.424737-16.407692 85.515063 85.498256L786.826791 268.615199zM-0.110522-212.004093l1023.348127 0L1023.237606 811.320525-0.110522-212.004093zM667.938299 242.450283l0.637546-19.932981 31.843524 31.843242-31.572336 31.571043 14.430232 14.429641 31.57336-31.571043 29.77022 29.769001-16.248722 1.802042c3.381142 16.359596 5.836154 32.655747 7.397784 48.88743l21.113719-0.174985c-2.233969-14.971993-4.927421-30.439266-8.118221-46.369074l41.124268 41.138956 31.939718-31.937386-14.080247-14.063297-19.660564 19.659759L651.704928 181.124566l19.661588-19.676132-14.064897-14.063297-31.938695 31.93841 42.495554 42.47744c-14.926556-1.213641-29.930886-2.981914-45.016061-5.325285l-1.084749 17.681708C636.796792 237.155696 652.182832 239.92988 667.938299 242.450283zM566.731216-147.030289l-14.063873 14.093996 29.403862 29.402657-96.694118 96.689133 15.513958 15.498996 96.694118-96.689133L643.412738-42.207919 520.920014 80.272623l-82.455252-82.427314-14.063873 14.063297L588.561278 176.070456l14.080247-14.080693-66.20653-66.202795 47.26231-47.261397 60.067465 60.080354 13.887857-13.903661-60.066442-60.065004 61.342557-61.346183 73.412948 73.433476 14.080247-14.07967L566.731216-147.030289zM892.005489 180.759245c-6.139065-6.139837-13.235985-13.107529-21.286664-20.919449-4.927421 3.475148-10.461688 7.206122-16.600753 11.177574 8.052726 6.616698 15.21207 13.042037 21.463704 19.308765 7.463278 7.445576 7.941181 14.430664 1.451108 20.919449l-16.966089 16.965393-52.126284-52.139497 53.401375-53.400211-14.446606-14.431687-53.386025 53.400211-50.51451-50.512441 39.497144-39.511899-14.063873-14.063297-51.407893 51.40681 64.579407 64.575738-16.966089 16.966417-35.352584-35.367509 6.490074-6.489808-13.711842-13.71128-46.003592 46.000684 112.942839 112.937189 46.003592-45.99966-13.713888-13.713326-6.490074 6.489808-35.734293-35.716456 16.967112-16.949021 66.205507 66.201771 30.853946-30.852682C906.913624 209.505963 906.563639 195.316799 892.005489 180.759245z"  horiz-adv-x="1024" />

    
    <glyph glyph-name="tipnew" unicode="&#58997;" d="M15.410599-195.290433l1023.348127 0L1038.758727 828.034185 15.410599-195.290433zM628.224205-45.288071l-151.75434 32.604582 92.186269-92.167143-31.354363-31.355125L390.754226 10.335784l32.581358 32.601512 149.564375-32.841989-91.206925 91.188862 31.352317 31.357172 146.545499-146.538471L628.224205-45.288071zM687.947825 14.434126 541.40028 160.991016l82.502326 82.499969 29.644349-29.67588-50.97297-50.957579 27.822789-27.821649 47.226493 47.226604 29.555317-29.581736-47.222399-47.209208 29.95033-29.957289 53.963193 53.958936 29.562481-29.559223L687.947825 14.434126zM895.930029 222.406784 788.008758 283.17173l60.583232-108.094904-30.600156-30.601972L628.964086 248.553281l34.015068 34.011628 114.039869-65.558112-64.095363 115.500571 27.781855 27.78174 112.938746-64.73128L787.783622 407.36324l33.471671 33.472346 105.504122-187.577143L895.930029 222.406784z"  horiz-adv-x="1024" />

    
    <glyph glyph-name="iconhui" unicode="&#58893;" d="M492.033966 356.086389l-139.994024 0 0-1.841951c0-6.964622 1.228018-11.464099 3.684053-13.507642 2.456036-2.052752 7.157297-3.069919 14.122204-3.069919l122.187766 0L492.033966 356.086389zM492.033966 426.694517l-122.187766 0c-7.780516 0-12.692587-1.438769-14.736213-4.297886-2.052836-2.868327-3.070044-6.964622-3.070044-12.279674l0-1.841951 139.994024 0L492.033966 426.694517zM678.692665 281.794359l-120.34574 0 0-14.121626 121.572734 4.91187C679.096887 274.628146 678.692665 277.698065 678.692665 281.794359zM686.981785 341.657772c2.244202 2.657526 3.378072 6.850012 3.378072 12.586666l0 1.841951-132.011908 0 0-18.419512 112.977633 0C679.508273 337.666878 684.727349 338.990013 686.981785 341.657772zM690.359857 410.116957c0 5.727445-1.333423 9.91993-3.991058 12.586666-2.665822 2.657526-7.675111 3.990894-15.042194 3.990894l-112.977633 0 0-18.419512 132.011908 0L690.36088 410.116957zM512.000512 748.185602c-247.536655 0-448.204989-200.659089-448.204989-448.185602 0-247.52549 200.667311-448.185602 448.204989-448.185602 247.535632 0 448.203966 200.660112 448.203966 448.185602C960.203454 547.526513 759.536143 748.185602 512.000512 748.185602zM238.4483 224.693874c0 10.226922 1.938221 17.901719 5.833084 23.024389 3.885653 5.112438 11.560764 7.876388 23.025333 8.28878l224.727249 8.595772 0 17.191544-152.274201 0c-10.648961 0-19.446684 1.017166-26.402382 3.069919-6.964907 2.043542-12.492011 5.420453-16.57824 10.130731-4.096463 4.701069-6.964907 10.639315-8.596124 17.805528-1.640427 7.157004-2.456036 16.059767-2.456036 26.708292l0 86.571704c0 20.875446 4.087252 35.505655 12.280178 43.899836 8.183715 8.384971 22.10432 12.586666 41.752604 12.586666l152.274201 0 0 18.419512-221.657204 0c-11.05216 0-18.832676 2.657526-23.332337 7.981788-4.508872 5.315052-6.754098 12.481266-6.754098 21.48943 0 9.82374 2.043626 17.191544 6.140089 22.103414 4.087252 4.91187 12.068344 7.367805 23.946346 7.367805l221.657204 0 0 14.121626c0 11.867282 2.764063 19.84907 8.28912 23.945365 5.52608 4.087085 13.8152 6.139837 24.868383 6.139837s19.34128-2.052752 24.868383-6.139837c5.524033-4.096295 8.28912-12.078083 8.28912-23.945365l0-14.121626 211.833062 0c11.454336 0 19.437474-2.455935 23.946346-7.367805 4.498638-4.91187 6.754098-12.279674 6.754098-22.103414 0-9.008164-2.456036-16.174378-7.36913-21.48943-4.911048-5.324262-12.691563-7.981788-23.331314-7.981788l-211.833062 0 0-18.419512 142.449036 0c19.649307 0 33.866683-4.604878 42.67464-13.814634 8.796701-9.209756 13.199144-23.436782 13.199144-42.671868l0-86.571704c0-20.875446-4.709448-36.023448-14.121181-45.434795 9.824142-9.008164 19.743455-19.339464 29.779431-31.006178 10.025742-11.665691 19.129447-22.822798 27.322372-33.462113 9.000347-11.464099 12.991404-21.393239 11.974196-29.779234-1.027442-8.394181-5.018499-15.253402-11.974196-20.568455-7.779492-5.735631-15.868036-8.192589-24.252327-7.366781-8.394525 0.815575-17.499253 7.980765-27.322372 21.48943-2.870491 3.270487-5.737913 6.848988-8.596124 10.744715-2.868445 3.885494-5.938489 7.674796-9.210133 11.358699l-462.348684-19.647479c-7.781539 0.815575-14.736213 3.684926-20.876302 8.594749C240.904336 209.344281 238.035891 216.098101 238.4483 224.693874zM554.663895 92.687374c-6.965931 3.683902-12.492011 10.236132-16.579263 19.646456-3.279831 8.193613-6.349875 14.630209-9.210133 19.340487-2.868445 4.701069-7.165484 11.148921-12.894186 19.340487-12.280178 17.593703-10.237575 31.716352 6.140089 42.364877 6.955697 4.498454 13.603367 6.541997 19.955288 6.139837 6.341688-0.413416 12.989358-5.324262 19.955288-14.735609 6.955697-10.237155 12.481777-18.419512 16.577216-24.559349 4.087252-6.139837 7.983139-13.718443 11.666169-22.717398 3.271644-9.420557 4.605067-17.804505 3.991058-25.174356-0.614009-7.366781-5.832061-13.506619-15.65825-18.419512l0.616056 0.615007C569.802284 89.617455 561.619592 89.003472 554.663895 92.687374zM350.197916 131.982332l0-0.615007c-4.096463-8.193613-8.08752-16.059767-11.973173-23.639396-3.894863-7.568373-7.982115-14.936177-12.280178-22.103414-4.298062-7.157004-9.008534-14.322194-14.122204-21.48943-5.122881-7.157004-10.956988-14.630209-17.499253-22.409382-9.008534-10.639315-18.218667-16.57756-27.630399-17.805528-9.420943-1.227967-17.806257 1.641383-25.174364 8.595772-7.368107 6.964622-10.85056 15.042601-10.438151 24.252357 0.403199 9.209756 5.113671 18.323321 14.122204 27.321252 10.227341 10.648524 19.542879 22.103414 27.937404 34.383088 8.385315 12.279674 14.832408 23.945365 19.34128 34.998095 4.912071 11.866259 11.253759 19.848047 19.034275 23.944342 7.771306 4.086062 16.57824 3.885494 26.402382-0.615007 10.63975-4.910846 16.36743-11.156084 17.192249-18.72548C355.925595 150.498034 354.285168 141.806071 350.197916 131.982332zM699.56999 67.82001c-2.052836-10.4367-5.834108-18.72548-11.359164-24.866341-5.52608-6.139837-13.201191-10.638291-23.025333-13.506619-9.826189-2.859118-22.517752-4.912893-38.069574-6.139837-11.051136-0.404206-24.358755-0.710175-39.910577-0.920976-15.560008-0.201591-31.621457-0.306992-48.199697-0.306992s-32.543494 0.210801-47.893716 0.613984c-15.350222 0.412392-28.148214 1.026376-38.375555 1.841951-16.37664 1.641383-29.472426 3.789303-39.296568 6.447852-9.824142 2.665713-17.297653 6.753821-22.411324 12.279674-5.122881 5.52483-8.49993 12.692067-10.131146 21.488407-1.640427 8.807596-2.456036 20.367887-2.456036 34.69008l0 59.556421c0 10.639315 3.166239 18.419512 9.517138 23.331381 6.341688 4.912893 13.8152 7.367805 22.411324 7.367805 9.824142 0 17.700853-2.454912 23.639342-7.367805 5.929279-4.91187 8.903129-12.691043 8.903129-23.331381l0-58.94346c0-6.955412 1.938221-11.760858 5.833084-14.428617 3.885653-2.657526 12.788782-4.393054 26.710409-5.218862 5.726656-0.404206 14.630808-0.709151 26.709386-0.920976 12.068344-0.201591 24.964578-0.306992 38.683583-0.306992l39.602549 0c12.6844 0 22.717305 0.210801 30.086435 0.615007 12.682353 0.411369 21.383882 2.148943 26.095377 5.218862 4.701261 3.069919 6.849269 10.130731 6.44607 21.181415 0 12.279674 2.860258 20.875446 8.596124 25.78834 5.728703 4.910846 13.095786 7.366781 22.10432 7.366781 8.596124 0 15.551821-2.665713 20.876302-7.981788 5.314247-5.324262 7.983139-12.894681 7.983139-22.717398C702.640034 91.871799 701.612593 78.258757 699.56999 67.82001zM818.687712 61.988188c-1.64145-8.595772-5.940536-15.138792-12.896233-19.647479l1.229041 1.227967c-7.781539-6.54302-15.562055-9.516748-23.333361-8.902764-7.781539 0.613984-15.148622 6.446829-22.10432 17.499559-9.421966 15.148002-18.112239 28.348652-26.095377 39.600927-7.983139 11.262508-17.097077 22.822798-27.322372 34.69008l0.614009 0c-9.421966 10.226922-14.429209 19.033495-15.044241 26.4013-0.614009 7.367805 3.166239 15.752776 11.361211 25.174356 6.542265 5.726421 13.911394 8.182356 22.10432 7.366781 8.182692-0.825808 15.752398-5.324262 22.717305-13.506619 11.454336-13.105482 21.798338-25.78834 31.008472-38.068014s19.129447-26.803459 29.779431-43.592844C817.66027 80.004517 820.318929 70.58396 818.687712 61.988188z"  horiz-adv-x="1024" />

    
    <glyph glyph-name="ordinaryarrcol" unicode="&#59032;" d="M640 320v-64h-64v64h64zM576 384v-64h-64v64h64zM512 448v-64h-64v64h64zM448 512v-64h-64v64h64zM448 128v-64h-64v64h64zM576 256v-64h-64v64h64zM512 192v-64h-64v64h64z"  horiz-adv-x="1024" />

    
    <glyph glyph-name="tipstop" unicode="&#58962;" d="M512 800c-282.788 0-512-229.212-512-512 0-282.859 229.212-512 512-512 282.859 0 512 229.182 512 512 0.010 282.788-229.141 512-512 512zM731.177 524.276h-192.349l177.092-203.015c5.781-6.707 5.71-15.358-0.957-21.21-6.738-5.75-15.521-4.987-21.21 1.69l-161.734 190.69v-464.541c0-10.636-8.193-19.256-18.798-19.256-10.636 0-18.859 8.621-18.859 19.256v440.787l-149.338-169.245c-3.175-3.633-10.839-5.618-15.328-5.618-3.664 0-7.369 1.12-10.371 3.705-6.738 5.811-7.46 15.521-1.72 22.228l170.813 196.908c0.662 3.44 2.28 7.593 4.621 7.593h-209.814c-10.605 0-19.226 8.224-19.226 18.829 0 10.575 8.621 18.859 19.226 18.859h447.952c10.636 0 19.195-8.295 19.195-18.859-0.010-10.605-8.559-18.798-19.195-18.798z"  horiz-adv-x="1024" />

    
    <glyph glyph-name="yonghu" unicode="&#58924;" d="M599.377558-146.454168 424.620395-146.454168c-165.80528 0-296.769031 0-296.769031 86.024236L127.851365-43.251691c0 161.188122 133.11474 292.257274 296.769031 292.257274l174.756139 0c163.619498 0 296.769031-131.101897 296.769031-292.257274l0-17.178241C896.145565-146.454168 758.588653-146.454168 599.377558-146.454168L599.377558-146.454168 599.377558-146.454168zM422.988222 200.527474c-137.625474 0-249.607918-109.935832-249.607918-245.098207l0-17.491373c0-35.046191 144.254451-35.046191 249.607918-35.046191l177.98467 0c87.207178 0 249.644757 0 249.644757 35.046191l0 17.491373c0 135.162376-112.017236 245.098207-249.644757 245.098207L422.988222 200.527474 422.988222 200.527474 422.988222 200.527474zM503.254314 284.052796c-129.923048 0-235.554854 104.140849-235.554854 232.119615 0 128.015605 105.631806 232.119615 235.554854 232.119615 129.923048 0 235.553831-104.104009 235.553831-232.119615C738.808144 388.193645 633.107777 284.052796 503.254314 284.052796L503.254314 284.052796 503.254314 284.052796zM316.246129 516.902028c0-101.224426 83.909062-183.571922 187.008184-183.571922 103.132892 0 187.041954 82.347496 187.041954 183.571922 0 101.190657-83.909062 183.502337-187.041954 183.502337C400.120398 700.404366 316.246129 618.092685 316.246129 516.902028L316.246129 516.902028 316.246129 516.902028zM316.246129 499.135386"  horiz-adv-x="1024" />

    
    <glyph glyph-name="1" unicode="&#58883;" d="M892.500549 29.240343 142.443711 29.240343c-14.794961 0-26.787086 11.727089-26.787086 26.154683L115.656625 617.644477c0 14.403035 11.992125 26.1291 26.787086 26.1291L892.500549 643.773578c14.795984 0 26.787086-11.726066 26.787086-26.1291L919.287635 55.395026C919.287635 40.967432 907.296533 29.240343 892.500549 29.240343zM505.089102 295.324514c10.457166-10.212596 27.420513-10.212596 37.877679 0l330.156442 322.319963L174.943916 617.644477 505.089102 295.324514zM624.758622 338.187741c31.022551-23.520693 203.908086-154.479327 267.741927-202.825428L892.500549 599.54833C834.173119 542.60441 708.467115 419.898741 624.758622 338.187741zM142.443711 68.470833c0-7.213285 6.001691-13.075807 13.387915-13.075807l723.270774 0c7.396457 0 13.398148 5.862521 13.398148 13.075807l0 34.230616L605.912391 319.791765c-37.554314-36.643572-62.946634-61.446467-62.946634-61.446467-10.457166-10.213619-27.420513-10.213619-37.877679 0l-68.668962 67.043952-293.975405-222.686778L142.443711 68.470833zM142.443711 135.362312c64.053851 48.530296 223.817532 169.551604 275.128151 208.388121L144.198681 610.651202c-1.016143-1.86958-1.753947-3.854794-1.753947-6.082532L142.444734 135.362312z"  horiz-adv-x="1024" />

    
    <glyph glyph-name="right-arrow-fine" unicode="&#58970;" d="M435.2 117.333l-34.133 30.72 153.6 139.947-153.6 139.947 34.133 30.72 187.733-170.667-187.733-170.667z"  horiz-adv-x="1024" />

    
    <glyph glyph-name="tiqianyuding01" unicode="&#58948;" d="M691.192172-83.178029c-3.207042-1.515516-6.426363-3.00545-9.66615-4.451382-1.081635-0.481977-2.164293-0.959861-3.248997-1.433652-1.511423-0.660032-6.54916-1.76111-0.672312-0.317225-6.160303-1.51347-12.261255-4.957919-18.251689-7.154957-12.355399-4.5312-24.911366-8.513908-37.619806-11.930727-12.853749-3.456728-25.863041-6.334265-38.974663-8.624425-3.004427-0.524956-6.014994-1.019213-9.029654-1.482771-1.511423-0.232291-3.02387-0.455371-4.538363-0.672312-1.569752-0.225127-5.789866-1.203408 0.151449 0.010233-6.839779-1.396813-14.204513-1.648546-21.148669-2.209318-23.569812-1.901303-47.291073-1.956561-70.870094-0.165776-4.713348 0.358157-9.42158 0.789992-14.121626 1.296529-2.806929 0.301875-5.607718 0.648776-8.410554 0.986467-1.582031 0.190335-4.683672 0.775666 2.341325-0.326435-1.850138 0.290619-3.711532 0.517793-5.564739 0.795109-9.896394 1.478677-19.741623 3.287883-29.516244 5.427616-19.506263 4.270257-38.72293 9.855462-57.479109 16.708544-4.486174 1.639337-8.944719 3.351328-13.375635 5.133927-1.804089 0.725524-9.911744 4.402263-2.309602 0.908696-2.468215 1.134847-4.993734 2.153036-7.474228 3.2623-9.069563 4.058432-18.002003 8.419763-26.779923 13.074783-17.061584 9.048073-33.534767 19.204387-49.28652 30.377868-3.834328 2.719948-7.625678 5.500271-11.372002 8.338922-0.8913 0.675382-1.768273 1.37123-2.667759 2.036379 6.040576-4.467755 2.010797-1.546216 0.735757-0.541329-2.106987 1.661849-4.198625 3.342118-6.275937 5.040806-7.610328 6.225795-15.015995 12.701277-22.201651 19.411095-14.042831 13.112646-27.244504 27.124777-39.498596 41.922808-1.425466 1.722224-2.838651 3.454682-4.239558 5.197372-1.222851 1.52268-6.92369 9.135054-1.965771 2.413979-2.923586 3.963265-5.940292 7.851828-8.813736 11.852956-5.755074 8.010441-11.246135 16.211217-16.460904 24.583908-10.242272 16.446577-19.416212 33.55728-27.436886 51.193962-1.031493 2.266623-2.042519 4.542456-3.035126 6.826476-0.451278 1.038656-0.87288 2.092661-1.343601 3.122107 3.15997-6.909363 1.004887-2.378164 0.37453-0.845251-1.902326 4.624321-3.725858 9.280364-5.470595 13.966083-3.507894 9.419534-6.696516 18.957771-9.555633 28.594245-5.659907 19.077497-10.037611 38.529525-13.102413 58.19133-0.397043 2.543939-0.75827 5.092995-1.121544 7.642051-0.487094 3.415796 0.832971-6.661723 0.230244-1.644453-0.168846 1.399883-0.348947 2.798742-0.512676 4.199649-0.603751 5.15644-1.12052 10.324136-1.546216 15.498996-0.860601 10.458189-1.355881 20.947078-1.487887 31.44006-0.258896 20.475334 0.858554 40.969087 3.371794 61.290925 0.208754 1.691525 1.069355 6.841825-0.150426-0.942465 0.217964 1.387603 0.38681 2.785439 0.589424 4.175089 0.337691 2.312672 0.693802 4.623297 1.068332 6.930853 0.820692 5.056156 1.726318 10.097986 2.719948 15.122419 1.971911 9.974166 4.285606 19.87977 6.935969 29.695323 2.62785 9.730619 5.587252 19.37221 8.871041 28.901237 1.484817 4.308119 3.035126 8.593725 4.65195 12.854772 0.806365 2.125407 1.629103 4.244674 2.468215 6.357801 0.502443 1.26583 1.011027 2.530636 1.52575 3.792373 0.318248 0.779759 2.650363 6.363941 0.850367 2.094708-1.734504-4.113691 0.069585 0.140193 0.364297 0.819668 0.540306 1.24741 1.085728 2.491751 1.63729 3.734044 0.917906 2.068102 1.852184 4.129041 2.800789 6.183839 2.084475 4.510734 4.244674 8.986675 6.479575 13.424754 4.454452 8.848529 9.204639 17.548678 14.237259 26.082028 5.016247 8.504698 10.313903 16.842597 15.880689 24.997324 2.52552 3.699252 5.107321 7.361665 7.742335 10.984169 1.316995 1.810229 2.647293 3.610224 3.990894 5.399987 0.806365 1.073448 1.62194 2.139733 2.432399 3.210112 2.833535 3.741207-3.77907-4.76349-0.13917-0.198521 12.132318 15.21554 25.00244 29.765931 38.911218 43.38716 7.02295 6.877641 14.271028 13.526061 21.727861 19.929912 3.39226 2.912329 6.827499 5.774517 10.30367 8.584516 1.913583 1.546216 3.866051 3.044336 5.777587 4.590552 2.557242 2.069125-5.092995-3.874237-1.254573-0.967024 1.427512 1.080611 2.849908 2.166339 4.285606 3.236718 15.46318 11.535731 31.670304 22.073738 48.490388 31.521924 8.648984 4.858658 17.458627 9.428743 26.411533 13.699 4.082992 1.948375 8.195659 3.833305 12.33698 5.655813 1.24434 0.547469 2.493797 1.082658 3.740184 1.626034 4.472871 1.949398-4.578272-1.858324-1.480724-0.621147 2.740414 1.094938 5.459339 2.24411 8.206916 3.324722 18.313088 7.206122 37.105083 13.193487 56.211233 17.909905 9.901511 2.443655 19.886933 4.547573 29.93273 6.305613 4.601808 0.805342 9.215896 1.539053 13.84124 2.199085 1.714038 0.24457 6.840802 0.62831-0.953721-0.116657 1.399883 0.134053 2.798742 0.357134 4.195555 0.525979 2.805906 0.337691 5.614881 0.649799 8.426927 0.934279 20.433378 2.068102 41.003879 2.738367 61.529355 2.028193 10.43977-0.361227 20.86726-1.086751 31.256888-2.172479 2.341325-0.24457 4.681626-0.508583 7.018857-0.789992 1.396813-0.167822 2.795673-0.391926 4.195555-0.525979-7.224542 0.690732-3.437286 0.467651-1.64957 0.214894 5.319146-0.751107 10.624988-1.597381 15.913435-2.540869 19.529799-3.484358 38.826284-8.269337 57.71754-14.325263 9.550517-3.061732 18.996656-6.446829 28.317952-10.148128 2.110057-0.838088 4.208858-1.703805 6.310729-2.561335 4.712325-1.923816-5.516644 2.39249-0.852414 0.360204 1.038656-0.452301 2.080382-0.898463 3.118014-1.352811 4.764514-2.088568 9.493212-4.260024 14.182001-6.514367 17.440208-8.384971 34.331923-17.906835 50.539047-28.479635 8.255011-5.385661 16.33299-11.04352 24.215518-16.960277 1.073448-0.806365 2.139733-1.62194 3.210112-2.432399 3.146667-2.382257-1.572822 1.201361-1.782599 1.379417 2.040473-1.733481 4.223185-3.320629 6.306636-5.003967 3.824095-3.091408 7.598049-6.245238 11.319813-9.459442 14.706957-12.70537 28.590152-26.363438 41.533952-40.860617 6.405897-7.1744 12.524245-14.57802 18.503423-22.10853 3.121084-3.930519-3.584642 4.727675-0.553609 0.725524 0.540306-0.713244 1.084705-1.423419 1.62501-2.137687 1.61887-2.142803 3.218298-4.300956 4.798283-6.472412 2.899026-3.984754 5.732561-8.017604 8.498558-12.095479 10.979052-16.185634 20.897959-33.089629 29.665647-50.572816 2.12643-4.240581 4.186346-8.513908 6.176676-12.81998 0.949628-2.053776 1.882883-4.115738 2.800789-6.183839 0.819668-1.848091 4.325515-10.686387 1.292436-2.873444 3.626597-9.341762 7.410783-18.583241 10.649548-28.075429 6.53995-19.169595 11.764951-38.786375 15.631002-58.668191 0.889253-4.572132 1.706875-9.157567 2.451842-13.755282 0.37453-2.307555 0.729617-4.618181 1.068332-6.930853 0.203638-1.38965 0.372483-2.787486 0.589424-4.175089-1.193175 7.606235-0.37453 2.752694-0.150426 0.942465 1.277086-10.328229 2.194992-20.701484 2.753717-31.093159 1.299599-24.177656 0.672312-48.462758-1.90028-72.539106-0.312108-2.922563-0.674359-5.837962-1.022283-8.756431-0.698918-5.852288 0.62524 4.197602 0.060375 0.430812-0.216941-1.445932-0.413416-2.894933-0.63138-4.339842-0.954745-6.333242-2.045589-12.646018-3.272533-18.932188-2.430352-12.453636-5.392824-24.803919-8.879228-37.004799-3.449565-12.07399-7.41283-24.00267-11.872399-35.742039-1.007957-2.654456-2.042519-5.297656-3.100618-7.93267-0.613984-1.527796-1.12666-3.287883-1.930979-4.723581 2.701528 4.824889 1.090844 2.543939 0.493234 1.169639-2.707668-6.220678-5.486968-12.402471-8.445346-18.509563-10.288321-21.240767-22.276353-41.611723-35.741016-60.992119-7.351432-10.580986-2.290159-27.736715 8.810666-33.602306 12.539594-6.625908 25.756617-2.482541 33.602306 8.810666 59.533908 85.691661 89.046059 191.360306 82.786495 295.512411-5.101181 84.890412-32.758078 168.172187-80.987522 238.365876-47.288003 68.821435-112.276133 125.494179-187.993628 161.052023-78.347392 36.792974-166.205393 52.401464-252.394381 42.841737-84.449367-9.366322-165.940356-40.409338-233.682203-92.052532-68.289316-52.060703-120.903627-120.17401-153.814178-199.500707-33.374108-80.44517-42.060955-169.57207-28.430516-255.333316 13.319353-83.805708 50.79692-162.565493 105.181551-227.449245 53.606919-63.955614 124.599809-112.342648 203.034183-140.469242 91.032296-32.644491 192.930057-35.617196 285.917892-9.376555 26.101471 7.365758 51.468209 17.219173 75.979462 28.803 11.648294 5.505387 15.564487 23.12672 8.810666 33.602306C717.070562-80.00885 703.650925-77.288902 691.192172-83.178029L691.192172-83.178029zM462.567147 467.556157c0-21.60404 0-43.207058 0-64.811098 0-34.441417 0-68.882833 0-103.32425 0-7.915273 0-15.83157 0-23.746844 0-13.276375 11.252275-24.559349 24.559349-24.559349 28.912493 0 57.824987 0 86.738503 0 45.852304 0 91.705632 0 137.557936 0 10.515494 0 21.030989 0 31.546483 0 12.846586 0 25.15389 11.296277 24.559349 24.559349-0.595564 13.30605-10.790764 24.559349-24.559349 24.559349-28.912493 0-57.824987 0-86.738503 0-45.852304 0-91.704608 0-137.557936 0-10.515494 0-21.030989 0-31.546483 0 8.18645-8.18645 16.372899-16.372899 24.559349-24.559349 0 21.60404 0 43.207058 0 64.811098 0 34.441417 0 68.882833 0 103.32425 0 7.915273 0 15.83157 0 23.746844 0 12.846586-11.296277 25.152866-24.559349 24.559349C473.819422 491.519941 462.567147 481.324742 462.567147 467.556157L462.567147 467.556157z"  horiz-adv-x="1024" />

    
    <glyph glyph-name="icontip0101" unicode="&#58911;" d="M808.277 510.601c0 30.379-23.893 55.296-53.589 55.296-30.037 0-53.931-24.917-53.931-55.296 0-30.72 23.893-55.296 53.931-55.296 29.696 0 53.589 24.576 53.589 55.296zM458.069 510.601c0-30.72 24.235-55.296 53.931-55.296s53.931 24.576 53.931 55.296c0 30.379-24.235 55.296-53.931 55.296s-53.931-24.917-53.931-55.296zM215.723 510.601c0-30.72 23.893-55.296 53.589-55.296 30.037 0 53.931 24.576 53.931 55.296 0 30.379-23.893 55.296-53.931 55.296-29.696 0-53.589-24.917-53.589-55.296zM796.638-125.201c-8.841 0-17.647 3.413-24.337 10.172l-222.583 225.963h-450.082c-53.999 0-99.635 46.899-99.635 102.4v580.267c0 56.457 47.070 102.4 104.926 102.4h814.148c57.856 0 104.926-45.943 104.926-102.4v-580.267c0-56.457-47.070-102.4-104.926-102.4l-99.874-0c-18.876 0-34.133 15.292-34.133 34.133s15.258 34.133 34.133 34.133h99.874c20.241 0 36.659 15.326 36.659 34.133v580.267c0 18.807-16.418 34.133-36.659 34.133h-814.148c-20.207 0-36.659-15.326-36.659-34.133v-580.267c0-19.217 16.862-34.133 31.369-34.133h464.384c9.148 0 17.886-3.652 24.337-10.172l232.585-236.134c13.21-13.449 13.039-35.021-0.375-48.265-6.622-6.588-15.292-9.83-23.927-9.83z"  horiz-adv-x="1024" />

    
    <glyph glyph-name="leida" unicode="&#58920;" d="M938.326974 777.95168l-53.05472-52.897939c175.33613-195.466822 175.187188-493.374407 0.078391-690.275775l54.269774-54.105154C1142.620571 191.057354 1142.205102 568.304008 938.326974 777.95168zM814.368007 654.329791l-54.79499-54.638209c106.869829-126.357718 106.932541-312.597973 0.517378-439.919895l54.332486-54.238417C950.728358 263.231528 950.892979 497.964173 814.368007 654.329791zM207.350828 725.05374l-53.05472 52.897939c-203.893805-209.647671-204.293597-586.894326-1.309122-797.278868l54.277613 54.105154C32.132284 231.687173 31.983342 529.586919 207.350828 725.05374zM278.239397 654.329791c-136.54065-156.365618-136.344673-391.098264-0.062712-548.796521l54.348164 54.238417c-106.407325 127.321922-106.375968 313.554338 0.49386 439.919895L278.239397 654.329791zM546.029335 553.935022c-97.141562 0-175.869186-78.563003-175.869186-175.445877 0-96.867195 78.727623-175.461555 175.869186-175.461555 97.141562 0 175.900542 78.59436 175.900542 175.461555C721.929877 475.379857 643.170898 553.935022 546.029335 553.935022z"  horiz-adv-x="1112" />

    
    <glyph glyph-name="arrow-left" unicode="&#58915;" d="M758.528-53.984c12.512 12.512 13.248 31.872 2.048 43.776l-376.48 376.512c-16.16 15.328-16.096 19.328 0 35.424l376.48 376.448c11.232 11.872 10.464 31.264-2.048 43.776-12.736 12.736-32.608 13.44-44.448 1.632l-418.208-418.176c-5.152-5.152-7.456-11.872-7.872-18.784v-5.248c0.448-6.944 2.752-13.632 7.872-18.784l418.176-418.176c11.872-11.808 31.776-11.104 44.48 1.6z"  horiz-adv-x="1024" />

    
    <glyph glyph-name="fangzi-copy" unicode="&#58884;" d="M969.5 323.443l-468.75 363.867-468.75-363.867v148.359l468.75 363.867 468.75-363.867zM852.313 336.656v-351.563h-234.375v234.375h-234.375v-234.375h-234.375v351.563l351.563 263.672z"  horiz-adv-x="1000" />

    
    <glyph glyph-name="email-copy" unicode="&#58913;" d="M999.145 435.61l442.089 431.309c12.511-12.437 20.294-29.677 20.294-48.761v-868.296c0-18.022-7.056-34.313-18.358-46.545l-444.025 532.294zM31.967 868.873c12.065 10.966 27.89 17.818 45.41 17.818h1316.082c17.52 0 33.364-6.851 45.41-17.818l-703.451-553.425-703.451 553.425zM27.667-96.684c-11.301 12.232-18.358 28.523-18.358 46.545l0 868.278c0 19.084 7.782 36.324 20.294 48.761l442.089-431.29-444.025-532.294zM735.418 178.344l184.599 180.094 520.118-458.268c-12.195-11.618-28.56-18.86-46.676-18.86l-1316.082-0c-18.115 0-34.481 7.242-46.676 18.86l520.099 458.268 184.618-180.094z"  horiz-adv-x="1471" />

    
    <glyph glyph-name="search" unicode="&#58910;" d="M985.021152-55.806578 711.021508 218.204444C778.343819 289.088 819.872708 384.615822 819.872708 490.019556 819.872708 708.279467 642.936885 885.215289 424.688352 885.215289 206.428441 885.215289 29.492618 708.279467 29.492618 490.019556 29.492618 271.805156 206.428441 94.8352 424.688352 94.8352 511.512174 94.8352 591.600352 123.177244 656.806397 170.679467L934.151108-106.676622C948.236797-120.728178 970.912708-120.728178 984.987019-106.676622 999.072708-92.5568 999.072708-69.892267 985.021152-55.806578L985.021152-55.806578ZM424.688352 159.176533C246.125508 159.176533 101.343285 303.958756 101.343285 482.5216 101.343285 661.1072 246.125508 805.855289 424.688352 805.855289 603.273952 805.855289 748.022041 661.073067 748.022041 482.5216 748.022041 303.992889 603.273952 159.176533 424.688352 159.176533L424.688352 159.176533Z"  horiz-adv-x="1024" />

    
    <glyph glyph-name="tipfull" unicode="&#58929;" d="M779.621284 553.120512l-27.548131-27.548131-33.726055 33.726055 27.548131 27.548131 33.726055-33.726055ZM66.12707 831.978894l893.301286-893.301286L959.428356 831.978894 66.12707 831.978894zM688.471201 784.320455l25.745361-0.515746c2.916423-28.661783 3.170203-55.867402 0.772596-81.612763l-26.517957-0.25685C691.384553 726.134241 691.387623 753.598756 688.471201 784.320455zM644.703371 727.679433c4.287653-30.725792 5.748934-59.299571 4.376681-85.732593l-26.517957-0.257873c2.397606 23.686469 1.199315 52.521191-3.604084 86.505189L644.703371 727.679433zM475.812823 574.235692c43.936675 14.071484 88.131223 31.667234 132.589784 52.779064l10.04068-22.399149c-45.826721-22.141276-90.198302-40.58944-133.10553-55.352679L475.812823 574.235692zM846.034772 486.701057l-50.975998 50.975998-27.548426-27.547403 42.996257-42.996257-98.347912-98.347912c-15.446807-15.445784-30.379914-15.960507-44.796252-1.544169L645.99069 388.611018l11.842723 21.110807 19.824511-21.369703c6.862291-6.862291 13.991666-6.605442 21.36868 0.772596l78.266551 78.266551-26.261107 26.261107c-4.634554-4.634554-9.268084-8.754385-13.901615-12.359492-3.266393-19.051915-6.783497-36.984333-10.555403-53.80851l-21.11183-4.118807c6.347568 16.991999 11.580756 32.354895 15.70468 46.085618-27.290553-18.022469-57.416687-28.919656-90.367147-32.697703l-1.286296 22.912849c41.188074 4.461615 76.54842 20.937868 106.070804 49.431829l-33.983999 33.983999c-4.810562-4.119831-8.4126-7.03523-10.813277-8.753361-2.578732-20.424168-5.149277-37.07336-7.723915-49.946552l-21.11183-4.118807c4.457522 13.387915 8.751315 27.631314 12.873192 42.73736-23.174815-14.243399-47.975664-23.428595-74.404594-27.547403l-1.545192 23.170722c33.465183 4.976338 62.561871 18.279319 87.277786 39.905872l-26.261107 26.261107L553.821501 478.720292l-16.734126 16.734126 122.549104 122.549104 43.253106-43.253106 27.548426 27.547403-53.55166 53.55166 16.990976 16.991999 169.148421-169.148421L846.034772 486.701057zM888.256386 536.647609l-40.678468 40.678468-18.021445-18.022469-18.021445 18.021445 18.021445 18.022469-44.281529 44.281529-18.278295-18.279319-18.021445 18.021445 18.278295 18.279319-38.617529 38.618553 17.506722 17.506722 38.617529-38.618553 20.339234 20.339234 18.021445-18.021445-20.339234-20.339234 44.281529-44.281529 20.339234 20.339234 18.021445-18.021445-20.339234-20.339234 40.678468-40.678468L888.256386 536.647609z"  horiz-adv-x="1024" />

    
    <glyph glyph-name="tippre" unicode="&#58930;" d="M66.12707 831.978894l893.301286-893.301286L959.428356 831.978894 66.12707 831.978894zM497.954099 534.587694l-24.715915 24.715915 13.131065 20.339234c7.723915-9.43693 14.759145-17.333784 21.11183-23.685445 5.317099-5.318122 11.070126-4.891404 17.248849 1.287319L627.969245 660.483009l-37.07336 37.07336 17.249873 17.248849 49.946552-49.946552c1.886977 22.829961 2.571568 47.543829 2.059915 74.146721l22.141276-5.149277c0.341784-15.105023 0.25378-27.89021-0.257873-38.360679 19.047822 0.856507 39.045271 3.860934 59.987233 9.010211l-64.877613 64.878636 17.248849 17.248849 84.702124-84.702124-14.675234-14.675234c-28.834722-8.238638-56.644091-13.046131-83.415828-14.417361-0.687662-8.580422-1.633197-17.933441-2.831488-28.063149l29.349445-29.349445-11.328-11.328c-23.5166-15.615653-44.197618-26.345018-62.046125-32.181957l-9.269108 21.110807c15.962553 5.665023 31.91999 13.214976 47.885614 22.657023l-27.28953 27.28953L537.859971 535.359266C524.30321 521.802506 510.996137 521.545656 497.954099 534.587694zM567.467289 463.015611l5.664 25.745361c32.785707-16.647145 60.582797-23.170722 83.415828-19.566638 23.166629 5.322216 45.827745 18.536168 67.967998 39.649022l46.341445 46.342468 18.021445-18.021445-46.341445-46.342468c-28.151154-26.77583-56.213279-42.48051-84.187401-47.115064C631.92023 439.93187 601.620134 446.369489 567.467289 463.015611zM711.641923 344.586338l-25.744337 0c3.089361 25.745361 2.828418 56.722886-0.772596 92.939739l23.429619-0.25685C712.671369 403.286252 713.701838 372.391614 711.641923 344.586338zM903.961066 542.053736l-52.263317 52.263317c-10.127661-7.723915-21.456684-15.616676-33.982976-23.686469l48.659233-48.659233-121.261785-121.261785-17.506722 17.506722 104.783485 104.784508-74.404594 74.404594L653.199882 492.62293l-17.506722 17.506722 121.261785 121.261785 42.996257-42.996257c11.153014 7.036253 22.309098 15.101953 33.468253 24.201192l-56.125275 56.125275 17.506722 17.506722 126.666888-126.666888L903.961066 542.053736z"  horiz-adv-x="1024" />

    
    <glyph glyph-name="tiprec" unicode="&#58932;" d="M66.12707 831.978894l893.301286-893.301286L959.428356 831.978894 66.12707 831.978894zM789.135878 468.936461c-23.515576 2.920516-46.687322 6.347568-69.512167 10.29753l-10.813277-10.812253 56.641021-56.641021-17.506722-17.506722-56.641021 56.641021L656.547117 416.158421c-13.902638-13.902638-27.721365-13.986549-41.451064-0.25685l-30.122041 30.122041 12.615319 23.428595c12.357446-14.07046 21.279652-23.854291 26.774807-29.349445 6.348592-6.348592 12.615319-6.436596 18.794042-0.25685l29.607318 29.607318-71.056336 71.057359 17.506722 17.506722 71.056336-71.057359 15.962553 15.962553c11.670807-2.7486 29.347398-6.52153 53.035914-11.328l-84.702124 84.702124 16.991999 16.991999 110.963231-110.963231L789.135878 468.936461zM836.507792 487.988376 702.373839 622.122329c-20.941961-5.833869-42.995233-9.525957-66.165955-11.070126L527.046694 501.891014l-17.764596 17.764596 91.13872 91.13872c-19.227923 1.028423-40.250726 3.692089-63.076594 7.980765l3.347235 26.517957c50.630121-10.467399 97.398284-11.070126 140.312676-1.802042l-62.819744 62.818721 16.991999 16.991999 72.601528-72.601528c10.640338 3.777023 19.993357 7.466042 28.063149 11.070126l14.933107-21.11183c-2.7486-1.37123-6.5246-3.089361-11.328-5.149277l-11.584849-4.891404 125.637442-125.638465L836.507792 487.988376zM890.831025 539.73697l-58.44204 58.44204-18.794042-18.794042-19.051915 19.051915 18.794042 18.794042-67.966974 67.966974-18.537192-18.536168-19.051915 19.051915 18.537192 18.536168-58.44204 58.44204 16.990976 16.991999 58.44204-58.44204 18.537192 18.536168 19.051915-19.051915-18.537192-18.536168 67.967998-67.966974 18.536168 18.536168 19.051915-19.051915-18.536168-18.536168 58.44204-58.44204L890.831025 539.73697z"  horiz-adv-x="1024" />

    
    <glyph glyph-name="leida1" unicode="&#58892;" d="M545.097816 11.083685l-50.967812 0L494.130004 83.880665c0 14.957667-12.140505 27.084868-27.098171 27.084868-14.97097 0-27.098171-12.127202-27.098171-27.084868l0-72.795956-50.968835 0c-14.969946 0-27.096125-12.133342-27.096125-27.091008 0-14.957667 12.127202-27.091008 27.096125-27.091008l156.131967 0c14.97097 0 27.098171 12.133342 27.098171 27.091008C572.194964-1.049656 560.068785 11.083685 545.097816 11.083685zM694.563966 596.288964c18.514679 18.508539 18.514679 48.52211 0 67.036789-18.501376 18.501376-48.507784 18.501376-67.023486 0-18.488073-18.514679-18.488073-48.52825 0-67.036789C646.056182 577.794751 676.06259 577.794751 694.563966 596.288964zM845.354274 253.488551l-33.564443 33.55114c-0.635473 0.807389-1.215688 1.653663-1.956561 2.394537L581.730131 517.529179l17.165961 17.178241c10.592242 10.580986 10.592242 27.732621 0 38.312584-10.580986 10.573823-27.732621 10.573823-38.298258-0.007163l-17.179264-17.178241L315.289849 783.941831c-0.661056 0.667196-1.428535 1.164522-2.142803 1.74576l-29.967522 29.980825c-10.578939 10.578939-27.731598 10.573823-38.312584 0.007163-10.578939-10.587126-10.578939-27.739784 0-38.312584l13.529131-13.542434c-59.299571-68.426439-91.77931-154.842601-91.77931-246.298546 0-100.641141 39.197744-195.251939 110.37483-266.407536 71.175039-71.16276 165.786861-110.354364 266.426979-110.354364 91.436502 0 177.86085 32.454156 246.285243 91.76089l17.337877-17.34504c5.28947-5.28947 12.220323-7.934716 19.150152-7.934716 6.943133 0 13.872962 2.645247 19.162432 7.934716C855.934237 225.756953 855.934237 242.909611 845.354274 253.488551zM714.719005 244.111996 428.720272 530.118915c-7.061836 7.05365-18.488073 7.05365-25.549909 0-7.048533-7.049556-7.048533-18.489096 0-25.537629l278.619672-278.613532c-42.702568-20.294209-89.717348-31.025621-138.371464-31.025621-86.159312 0-167.174464 33.55114-228.127697 94.491071-60.926628 60.913325-94.491071 141.922337-94.491071 228.088812 0 48.673559 10.737552 95.694479 31.038924 138.390907l81.015152-81.015152c3.530406-3.52529 8.145517-5.28947 12.773931-5.28947 4.616134 0 9.245572 1.76418 12.761652 5.28947 7.061836 7.048533 7.061836 18.488073 0 25.536606L269.981944 688.849056c8.014534 12.736069 16.927531 24.982998 26.767644 36.626175l454.602755-454.602755C739.714282 261.026224 727.467353 252.125507 714.719005 244.111996z"  horiz-adv-x="1024" />

    
    <glyph glyph-name="arrowright" unicode="&#58958;" d="M685.770333 392.986843 234.961455 828.135289 299.369332 890.281477 750.166016 455.144811 750.369047 455.340819 814.545455 393.359919 814.359971 393.180867 814.545455 393.001802 750.137577 330.855619 749.962519 331.024621 301.047529-102.266931 236.871121-40.313572 685.770333 392.986843Z"  horiz-adv-x="1024" />

    
    <glyph glyph-name="2" unicode="&#58887;" d="M689.46 844.573c-254.74 102.066-544.070-21.845-646.137-276.586-102.066-254.862 21.845-544.070 276.586-646.137 254.74-102.066 544.070 21.845 646.137 276.586 102.066 254.862-21.724 544.191-276.586 646.137zM908.398 221.616c-89.202-222.58-342.73-331.199-565.309-241.998-222.58 89.081-331.199 342.73-241.998 565.309 89.081 222.58 342.73 331.199 565.309 241.998s331.199-342.73 241.998-565.309zM657.905 532.306c-4.733 4.611-12.379 4.369-16.991-0.364-4.611-4.854-4.369-12.5 0.364-16.991 60.803-57.526 83.012-126.581 55.463-171.85-38.351-62.745-155.952-65.294-261.902-5.583-67.478 37.987-116.266 93.085-130.465 147.456-7.161 27.549-4.369 52.914 8.010 73.303 28.399 46.239 103.765 61.045 187.628 36.773 6.432-1.821 12.986 1.821 14.928 8.131 1.942 6.432-1.821 12.986-8.131 14.928-96.119 27.67-180.346 9.102-214.813-47.331-15.899-26.093-19.661-57.769-10.801-91.872 15.777-60.56 68.813-121.242 141.873-162.262 54.25-30.583 111.775-45.633 162.384-45.633 58.497 0 107.649 20.146 131.679 59.589 34.346 55.948 11.044 135.077-59.225 201.706v0 0zM498.798 428.176c1.942-1.092 3.884-1.456 5.825-1.456 4.247 0 8.253 2.185 10.437 6.068l108.013 191.875c3.277 5.703 1.214 12.986-4.611 16.262s-13.107 1.214-16.262-4.611l-108.013-191.875c-3.155-5.825-1.214-13.107 4.611-16.262v0 0zM612.759 186.542h-291.514l44.419 79.007c3.277 5.703 1.214 12.986-4.611 16.262s-13.107 1.214-16.262-4.611l-54.613-96.848c-2.063-3.762-2.063-8.253 0.122-11.893s6.068-5.947 10.316-5.947h312.025c6.675 0 11.893 5.461 11.893 11.893s-5.219 12.137-11.773 12.137v0 0zM612.759 186.542z"  horiz-adv-x="1024" />

    
    <glyph glyph-name="location" unicode="&#58971;" d="M470.075-96.719c0 0-334.521 426.837-334.521 609.809 0 182.94 149.785 331.251 334.521 331.251 184.719 0 334.495-148.293 334.495-331.251-0.002-182.978-334.495-609.809-334.495-609.809v0zM466.604 654.055c-78.625 0-142.39-63.13-142.39-141.037 0-77.863 63.755-140.995 142.39-140.995 78.668 0 142.405 63.13 142.405 140.995 0 77.885-63.732 141.037-142.405 141.037v0z"  horiz-adv-x="1024" />

    
    <glyph glyph-name="homebig" unicode="&#59081;" d="M934.4 403.2c0-6.4-6.4-6.4-12.8-6.4 0 0 0 0 0 0-6.4 0-6.4 0-12.8 6.4L512 729.6 115.2 403.2c-6.4 0-6.4-6.4-12.8-6.4-6.4 0-6.4 0-12.8 6.4L57.6 448c-6.4 6.4-6.4 19.2 0 25.6l409.6 339.2c25.6 19.2 64 19.2 89.6 0l140.8-115.2L697.6 812.8c0 12.8 6.4 19.2 19.2 19.2l108.8 0c12.8 0 19.2-6.4 19.2-19.2L844.8 576l128-102.4c6.4-6.4 6.4-19.2 0-25.6L934.4 403.2zM838.4 134.4c0-19.2-19.2-38.4-38.4-38.4L582.4 96 582.4 320 441.6 320l0-217.6L217.6 102.4c-19.2 0-38.4 19.2-38.4 38.4L179.2 409.6c0 0 0 0 0 6.4L512 684.8l326.4-268.8c0 0 0 0 0-6.4L838.4 134.4z"  horiz-adv-x="1024" />

    
    <glyph glyph-name="homenavmessagesolid" unicode="&#59608;" d="M513.536 890.88C236.032 890.88 10.24 694.5792 10.24 453.2736c0-141.4144 79.0528-274.7904 210.2272-354.7136l0-217.8048 209.5104 140.9024c27.4944-3.9424 55.6032-5.9392 83.5584-5.9392 277.504 0 503.2448 196.3008 503.2448 437.5552C1016.7808 694.5792 791.04 890.88 513.536 890.88zM257.536 392.72448c-35.2768 0-64 28.7232-64 64 0 35.2768 28.7232 64 64 64s64-28.7232 64-64C321.536 421.44768 292.8128 392.72448 257.536 392.72448zM513.536 392.72448c-35.2768 0-64 28.7232-64 64 0 35.2768 28.7232 64 64 64 35.2768 0 64-28.7232 64-64C577.536 421.44768 548.8128 392.72448 513.536 392.72448zM769.536 392.72448c-35.2768 0-64 28.7232-64 64 0 35.2768 28.7232 64 64 64 35.2768 0 64-28.7232 64-64C833.536 421.44768 804.8128 392.72448 769.536 392.72448z"  horiz-adv-x="1024" />

    
    <glyph glyph-name="unie60d" unicode="&#58939;" d="M959.008 489.984l-308 47.008-139.008 295.008-139.008-295.008-308-47.008 223.008-228-52.992-324 276.992 152.992 276.992-152.992-52.992 324zM512 156l-208-116.992 40 235.008-179.008 182.016 242.016 32 104.992 224 104-224 240.992-34.016-176.992-180.992 36.992-235.008z"  horiz-adv-x="1024" />

    
    <glyph glyph-name="wujiaoxing" unicode="&#58938;" d="M434.385806-0.931976l-108.299565-49.965995c-13.696953-9.355065-29.53671-14.287401-45.946448-14.287401-45.26595 0-82.092693 36.993542-82.092693 82.465177 0 13.366426 0.976234 21.73093 1.218758 23.601534l14.410198 128.041188 0.333598 1.328251c3.487428 13.906731 4.500501 28.51852 3.009544 43.431162-3.243881 31.971156-17.214057 62.156642-38.32384 82.784448l-0.728594 0.750083-69.378114 75.096349c-12.018731 7.225565-46.442752 32.57286-46.442752 85.823668 0 34.263361 18.977213 65.862034 49.525973 82.464153l2.619664 1.424442 181.426049 38.389332c17.176195 8.188496 42.660612 24.789593 59.335387 50.488905l0.719384 2.51017 80.431867 136.382157c8.410554 34.485419 39.546691 59.134819 75.442226 59.134819 35.892465 0 67.052139-24.668843 75.475995-59.173704l79.338976-135.896086 0.708128-2.518357c7.405667-26.333762 29.418007-46.039569 56.079226-50.203402l0.753153-0.132006 155.99996-30.372751-0.00614-0.028653c6.008854-1.175779 22.042016-4.285606 32.547277-6.317892l5.569856-1.078565 4.220115-3.792373c1.426489-1.281179 34.941813-31.978319 34.941813-82.266655 0-28.128641-12.528338-54.594409-34.438347-72.886007l-80.837096-89.899496-0.236384-0.245593c-19.779486-20.574594-32.902364-49.904597-36.002982-80.467683-1.172709-11.796674-0.663102-23.907503 1.514493-35.953863l0.13917-0.766456 14.001899-135.694495c2.573615-8.243755 3.827165-16.10377 3.827165-23.957645 0-45.471634-37.041638-82.465177-82.572624-82.465177-11.993149 0-23.681352 2.597151-34.45472 7.596002l-0.355087-0.261966-122.073266 58.07058-1.503237 1.254573c-1.450025 1.042749-18.119683 12.583596-50.845015 17.921161-10.036587 1.64036-19.810185 2.471284-29.057803 2.471284-42.330084 0-62.209854-16.989953-64.167438-18.762319M718.650035-16.505673c7.136537-5.068436 15.442714-7.747451 24.020066-7.747451 22.960944 0 41.640376 18.631336 41.640376 41.532929 0 4.043083-0.788969 8.336876-2.412956 13.129019l-0.738827 2.179642-14.303774 138.617058c-2.735297 15.525602-3.348258 31.178093-1.822508 46.536896 3.997034 39.410592 21.113877 77.458139 46.976918 104.489796l82.524528 91.775216 1.279133 1.030469c13.047154 10.512425 20.530592 25.862018 20.530592 42.113143 0 24.000624-11.895935 41.035602-17.999956 48.194652l-11.189853 2.168386c-4.406356 0.854461-8.81169 1.710968-12.116969 2.354628l-4.021593 0.786922c-0.315178 0.062422-0.62217 0.12689-0.925069 0.195451-0.054235 0.010233-0.099261 0.01842-0.135076 0.024559 0.036839-0.00614 0.075725-0.013303 0.116657-0.020466-0.103354 0.023536-0.206708 0.048095-0.309038 0.071631l-153.22987 29.833469c-41.361013 6.614651-75.592652 36.610826-87.992053 76.865645l-80.144318 137.275503-0.662079 3.419889c-3.328815 17.195637-18.506493 29.676903-36.08894 29.676903-17.585517 0-32.749892-12.472056-36.058241-29.655414l-0.669242-3.477194-81.34261-137.926326c-13.721513-41.909505-61.734016-64.691371-82.483596-74.5366l-2.177596-1.033539-180.083471-38.104853c-15.954367-9.724479-25.753547-26.774807-25.753547-45.125757 0-35.877115 25.040303-49.965995 27.308973-51.167357l3.720741-1.666966 2.369977-2.857071 71.212902-77.082586c27.640524-27.207665 45.874817-66.382896 50.056046-107.579157 1.916653-19.171642 0.672312-38.033221-3.695159-56.117089l-14.196327-126.08258c0-0.004093-0.873903-6.758937-0.873903-18.305925 0-22.901593 18.464537-41.532929 41.160445-41.532929 8.465812 0 16.680914 2.691295 23.75503 7.782244l1.596358 1.149173 108.981087 50.28015c11.398608 6.6607 38.236859 27.839045 89.908706 27.839045 11.45182 0 23.447015-1.011027 35.654035-3.006474 38.439474-6.269797 60.422138-19.678178 67.356061-24.52251l95.889931-45.614897"  horiz-adv-x="1024" />

    
    <glyph glyph-name="dingwei" unicode="&#58909;" d="M512.789408-127.999001c0 0-356.554584 454.951786-356.554584 649.975518 0 194.989758 159.651262 353.069198 356.554584 353.069198 196.886335 0 356.527604-158.060455 356.527604-353.069198-0.001999-195.030727-356.527604-649.975518-356.527604-649.975518l0 0zM509.090182 672.22683c-83.804147 0-151.769173-67.288534-151.769173-150.326255 0-82.991756 67.954034-150.282288 151.769173-150.282288 83.850112 0 151.785161 67.288534 151.785161 150.282288 0 83.014739-67.930052 150.326255-151.785161 150.326255l0 0z"  horiz-adv-x="1024" />

    
    <glyph glyph-name="shouji" unicode="&#58959;" d="M463.525-5.34375c0 16.45 15.6125 29.7875 34.85625 29.7875l27.225 0c19.24375 0 34.85-13.3375 34.85-29.7875l0-4.03125 260.83125 0L821.2875 860.99375c0 19.33125-15.60625 35.0125-34.85 35.0125l-548.8875 0c-19.24375 0-34.85-15.68125-34.85-35.0125L202.7-9.375l260.825 0L463.525-5.34375zM432.48125 851.325l191.68125 0c5.4125 0 9.80625-3.75625 9.80625-8.375 0-4.625-4.39375-8.38125-9.80625-8.38125l-191.68125 0c-5.4125 0-9.80625 3.75625-9.80625 8.38125C422.68125 847.56875 427.075 851.325 432.48125 851.325zM358.4375 851.325l13.0625 0c5.4125 0 9.80625-3.75625 9.80625-8.375 0-4.625-4.39375-8.38125-9.80625-8.38125l-13.0625 0c-5.4125 0-9.80625 3.75625-9.80625 8.38125C348.63125 847.56875 353.025 851.325 358.4375 851.325zM287.56875 112.25625l0 621.6875c0 16.5125 14.925 29.875 33.3375 29.875l381.4 0c18.4125 0 33.3375-13.36875 33.3375-29.875l0-621.6875c0-16.49375-14.925-29.8625-33.3375-29.8625l-381.4 0C302.49375 82.39375 287.56875 95.7625 287.56875 112.25625zM560.45625-9.375l0-19.24375c0-16.45-15.60625-29.7875-34.85-29.7875l-27.225 0c-19.24375 0-34.85625 13.3375-34.85625 29.7875l0 19.24375-260.825 0 0-83.60625c0-19.33125 15.60625-35.0125 34.85-35.0125l548.8875 0c19.24375 0 34.85 15.68125 34.85 35.0125L821.2875-9.375 560.45625-9.375z"  horiz-adv-x="1024" />

    
    <glyph glyph-name="qiaquan" unicode="&#59070;" d="M694.242-128.003 329.763-128.003C147.915-128.003 0 19.908 0 201.758L0 566.237C0 748.084 147.915 896 329.763 896l364.479 0c181.85 0 329.761-147.916 329.761-329.763l0-364.479C1024.003 19.908 876.092-128.003 694.242-128.003zM329.763 843.917c-153.105 0-277.681-124.575-277.681-277.683l0-364.476c0-153.1 124.575-277.691 277.681-277.691l364.479 0c153.1 0 277.681 124.58 277.681 277.691L971.923 566.237c0 153.105-124.58 277.681-277.681 277.681L329.763 843.918 329.763 843.917zM113.873 527.534c0 16.223 2.595 27.802 7.777 34.71 5.178 6.907 16.685 10.357 34.54 10.357l110.543 0 0-450.584-47.498 0c-12.655 0-25.193 0.15-37.573 0.455s-20.87 0.455-25.473 0.455c-15.55-0.61-26.47 2.115-32.813 8.1-6.348 6.02-9.503 17.42-9.503 34.255L113.873 295.028c0 6.63 1.01 11.575 3.03 14.88 2.008 3.3 6.19 5.565 12.505 6.75 2.315 0 5.473 0.92 9.52 2.72 4.007 1.8 8.052 4.645 12.068 8.555 4.04 3.91 7.492 9.015 10.37 15.31 2.878 6.325 4.325 13.965 4.325 22.975 0 13.815-3.595 24.665-10.807 32.455-7.188 7.792-14.825 12.312-22.88 13.535-6.328 1.195-10.933 3.15-13.823 5.835-2.865 2.69-4.31 7.365-4.31 13.968L113.871 527.534 113.873 527.534 113.873 527.534zM185.553 613.149l0 23.438c0 12.01 4.463 23.13 13.373 33.338 8.943 10.208 18.583 15.308 28.943 15.308l119.188 0 0-72.083L185.553 613.15 185.553 613.149 185.553 613.149zM889.397 417.589c-4.61-1.195-7.925-3.728-9.93-7.637-2.02-3.915-3.01-8.283-3.01-13.08 0-4.802 0.995-9.44 3.01-13.963 2.005-4.52 5.32-7.67 9.93-9.475 4.6-1.805 8.205-5.405 10.8-10.815 2.58-5.41 4.03-11.09 4.31-17.115 0.28-5.99-0.43-11.7-2.16-17.115-1.725-5.405-4.31-9.32-7.76-11.725-11.52-7.22-17.295-15.315-17.295-24.325 0-9.02 5.775-18.03 17.295-27.04 2.3-1.81 4.465-5.11 6.47-9.9 2.025-4.8 3.015-9.63 3.015-14.425 0-4.8-1.155-9.01-3.45-12.615-2.3-3.615-6.335-5.415-12.085-5.415l-46.635 0c-3.465 0-5.325 0.31-5.605 0.92-0.31 0.58 0.125 1.645 1.28 3.145 1.165 1.495 2.59 3.15 4.325 4.955 1.735 1.795 3.17 3.905 4.32 6.29 2.86 8.43 2.86 15.65 0 21.635-2.88 6.025-7.785 11.12-14.68 15.335-4.61 2.385-7.93 6.145-9.925 11.25-2.015 5.095-2.895 10.39-2.595 15.765 0.285 5.41 1.285 10.23 3.015 14.425 1.72 4.215 4.305 7.215 7.755 9.005 4.625 1.815 8.07 5.115 10.375 9.94 2.3 4.795 3.47 9.895 3.47 15.305 0 5.41-0.87 10.365-2.61 14.885-1.715 4.49-4.31 7.635-7.76 9.44-4.605 2.415-8.195 6.02-10.795 10.818-2.6 4.798-3.89 10.208-3.89 16.228 0 6.02 1.135 11.855 3.455 17.57 2.3 5.712 6.03 10.357 11.23 13.962 3.455 2.415 6.325 5.715 8.635 9.933 2.3 4.185 3.6 8.708 3.88 13.502 0.285 4.8-0.575 9.478-2.585 13.968-2.015 4.52-5.62 8.248-10.79 11.273-5.765 2.995-9.935 7.335-12.535 13.047-2.575 5.718-3.89 11.583-3.89 17.573 0 6.018 1.315 11.735 3.89 17.143 2.6 5.407 6.19 9.595 10.79 12.62 9.795 5.407 15.12 12.74 15.99 22.06s0.14 17.875-2.16 25.667c-1.725 6.02-5.18 11.427-10.37 16.258-5.18 4.795-11.79 7.18-19.86 7.18L399.731 614.041l0 71.195 486.206 0c4.03 0 7.495-1.492 10.36-4.49 2.895-3.025 4.76-6.6 5.63-10.818 0.85-4.218 0.575-8.557-0.87-13.077-1.43-4.493-4.17-8.25-8.215-11.245-3.445-3.025-6.465-6.935-9.05-11.735-2.61-4.795-4.04-9.745-4.32-14.88-0.28-5.1 0.43-10.208 2.145-15.278 1.74-5.137 4.895-8.89 9.515-11.278 6.31-3.605 11.08-8.583 14.245-14.88 3.16-6.325 4.75-12.62 4.75-18.915 0-6.323-1.59-12.16-4.75-17.565-3.165-5.413-7.615-9.325-13.37-11.738-6.35-2.385-10.955-5.837-13.845-10.357-2.86-4.493-4.445-9.473-4.73-14.878-0.29-5.382 0.855-10.667 3.445-15.77 2.595-5.105 6.755-9.442 12.52-13.047 5.755-3.605 9.945-8.435 12.53-14.425 2.58-6.02 3.735-12.01 3.45-18.028-0.28-6.02-1.74-11.548-4.32-16.685C898.472 421.041 894.587 418.201 889.397 417.589L889.397 417.589 889.397 417.589zM777.137 431.124c-6.9-1.802-12.25-5.253-15.985-10.39-3.75-5.1-5.75-10.357-6.05-15.732-0.285-5.413 1.165-10.848 4.305-16.223 3.175-5.415 7.93-9.33 14.275-11.74 5.76-2.38 10.09-5.985 12.94-10.82 2.895-4.79 4.46-9.9 4.76-15.305 0.28-5.41-0.73-10.51-3.015-15.305-2.3-4.83-5.77-8.43-10.39-10.825-14.365-7.21-21.865-15.915-22.445-26.12-0.565-10.24 4.905-18.335 16.41-24.355 5.195-2.385 9.365-6.14 12.52-11.25 3.155-5.125 4.9-10.535 5.18-16.215 0.29-5.715-0.71-10.825-3.02-15.345-2.295-4.49-6.03-7.64-11.225-9.435-6.905-1.81-12.22-5.135-15.965-9.94-3.75-4.79-5.765-9.9-6.055-15.31-0.285-5.405 1.15-10.815 4.325-16.22 3.17-5.405 8.205-9.9 15.11-13.51 4.605-2.41 7.905-6.165 9.925-11.275 2.02-5.1 2.745-10.05 2.17-14.88-0.58-4.8-2.17-9.13-4.765-13.05-2.58-3.905-6.18-5.86-10.775-5.86L317.681 122.019 317.681 572.602l456.861 0c4.6 0 8.195-1.958 10.795-5.867 2.595-3.91 4.025-8.25 4.305-13.045 0.29-4.83-0.71-9.627-3.015-14.455-2.3-4.8-6.035-8.1-11.225-9.9-5.16-1.8-9.365-4.8-12.52-9.015-3.155-4.182-5.025-8.86-5.615-13.962-0.58-5.108 0.59-10.052 3.445-14.85 2.9-4.83 7.78-8.435 14.69-10.818 5.19-2.415 9.355-6.02 12.53-10.817 3.155-4.798 4.885-9.78 5.18-14.88 0.28-5.105-0.875-9.903-3.47-14.423C787.062 436.074 782.877 432.929 777.137 431.124L777.137 431.124 777.137 431.124zM568.991 370.739c-2.875 0-5.905 0.315-9.065 0.89-3.15 0.615-3.89 2.42-2.155 5.41 0.575 1.23 3.32 5.405 8.205 12.625 4.885 7.208 10.36 14.877 16.41 22.973 6.045 8.097 11.665 15.768 16.835 22.982 5.185 7.208 8.355 11.733 9.49 13.503 2.9 4.827 1.155 10.545-5.17 17.145-1.145 1.192-3.445 2.992-6.895 5.407-3.455 2.383-6.63 4.185-9.52 5.407-4.605 1.805-7.895 2.078-9.92 0.887-2.025-1.192-4.48-3.912-7.34-8.097-1.155-1.802-4.045-6.175-8.65-13.078-4.605-6.907-9.5-14.272-14.68-22.062-5.16-7.823-9.92-14.88-14.24-21.177-4.325-6.32-6.775-10.083-7.35-11.273-1.15-2.387-3.29-3.3-6.46-2.692-3.175 0.583-5.325 2.08-6.475 4.492-0.59 1.19-3.172 4.645-7.78 10.36-4.6 5.715-9.515 12.163-14.675 19.375-5.198 7.208-10.235 13.965-15.118 20.288-4.9 6.292-8.213 10.665-9.938 13.048-5.18 10.238-10.65 13.537-16.408 9.93-4.042-2.41-7.62-4.98-10.79-7.67-3.172-2.688-6.19-4.95-9.085-6.75-5.753-4.218-6.623-9.628-2.58-16.228 9.798-12.01 18.413-23.13 25.91-33.338 6.345-8.4 12.377-16.533 18.133-24.318 5.752-7.83 9.205-12.32 10.357-13.54 1.165-2.38 0-3.61-3.455-3.61l-10.355 0c-2.88 0-7.06-0.12-12.535-0.42-5.458-0.31-10.498-0.155-15.103 0.42-4.62 0-8.35-1.19-11.23-3.6-2.872-2.39-3.745-5.41-2.58-9.01 0.578-2.385 0.857-6 0.857-10.79l0-10.825c0-3.025 0.855-4.67 2.58-4.95 1.742-0.3 3.747-0.45 6.065-0.45l50.078 0c6.903 0 10.358-1.5 10.358-4.525l0-17.115c0-2.995-0.578-4.52-1.71-4.52l-57.873 0c-3.465 0.615-5.75-0.275-6.917-2.685-1.148-2.42-1.99-5.11-2.58-8.105-0.577-3.025-0.577-5.865 0-8.58 0.59-2.695 0.855-4.955 0.855-6.755 0-7.795 3.747-11.71 11.242-11.71l51.82 0c2.863 0 4.585-0.45 5.16-1.34 0.595-0.915 0.872-2.865 0.872-5.865 0.575-2.995 0.715-8.405 0.435-16.225-0.277-7.825-0.435-12.925-0.435-15.315 0-6.625 3.733-9.925 11.225-9.925l27.633 0c4.625 0 6.925 1.495 6.925 4.52l0 36.03c0 6.02 2.585 9.01 7.775 9.01l7.745 0c4.055 0 8.525 0.155 13.41 0.46 4.88 0.305 9.64 0.46 14.24 0.46l11.23 0c8.06 0 12.085 2.995 12.085 9.015l0 19.83c0 5.375-2.87 8.095-8.635 8.095l-50.075 0c-5.78-1.185-8.645 0-8.645 3.605 0 1.81-0.14 4.03-0.435 6.76-0.275 2.71-0.435 5.245-0.435 7.66 0 2.395 1.015 4.19 3.015 5.41 2.025 1.19 4.175 1.81 6.5 1.81l50.945 0c5.76 0 8.63 2.075 8.63 6.29l0 21.64c0 2.375-1 4.795-3.025 7.205-2.01 2.42-4.45 3.6-7.325 3.6L568.991 370.738 568.991 370.739 568.991 370.739z"  horiz-adv-x="1024" />

    
    <glyph glyph-name="guanbi" unicode="&#58881;" d="M28.2 761.6C-1.2 790.8-1.2 838.6 28.2 867.8 57.4 897.2 105.2 897.2 134.4 867.8L512 490.4 889.6 867.8c29.4 29.4 77 29.4 106.2 0 29.4-29.4 29.4-77 0-106.2L618.4 384 996 6.4c29.4-29.2 29.4-77 0-106.2-29.2-29.4-77-29.4-106.2 0L512 277.6 134.4-99.8c-29.4-29.4-77-29.4-106.2 0-29.4 29.2-29.4 77 0 106.2L405.6 384 28.2 761.6z"  horiz-adv-x="1024" />

    
    <glyph glyph-name="chucuo" unicode="&#58963;" d="M513.2 831.8c-246.9 0-447-200.1-447-447s200.1-447 447-447 447 200.1 447 447-200.2 447-447 447z m178.5-564.7c16.4-16.3 16.4-42.6 0-58.9-16.4-16.3-43-16.3-59.4 0L513.4 326 391.3 204.9c-16.4-16.3-43-16.3-59.4 0a41.406 41.406 0 0 0 0 58.9L454 384.9 331.9 506a41.406 41.406 0 0 0 0 58.9c16.4 16.3 43 16.3 59.4 0l122.1-121.1 118.8 117.8c16.4 16.3 43 16.3 59.4 0s16.4-42.6 0-58.9L572.8 384.9l118.9-117.8z"  horiz-adv-x="1024" />

    
    <glyph glyph-name="youhui" unicode="&#59203;" d="M928.32882 867.978302H565.966042a63.675413 63.675413 0 0 1-45.114708-19.192944L50.669372 374.426108a64.89473 64.89473 0 0 1 0-91.177773l361.120882-364.327232a63.449614 63.449614 0 0 1 90.319735 0l470.701301 474.17861a65.278589 65.278589 0 0 1 19.238104 45.588887V803.580331c0.06774 35.427916-28.608776 64.397971-63.720574 64.397971zM613.383903 252.110606c-3.38699-5.261125-7.880397-10.702889-13.435061-16.257552a125.183153 125.183153 0 0 0-18.651025-15.760794l-88.219802 90.003617-40.96-40.847101 88.264962-89.981036c-3.38699-5.238545-7.902977-10.748049-13.480221-16.302712a123.399338 123.399338 0 0 0-18.628445-15.715634l-88.242382 89.958456-73.046086-72.888026a183.461963 183.461963 0 0 0-12.870562 10.386769 202.677486 202.677486 0 0 0-12.418963 11.718986 203.264564 203.264564 0 0 0-21.608997 25.786284l73.046086 72.888027-84.674752 86.323087c2.483793 4.990165 7.180419 10.883528 13.976979 17.680088 2.822492 2.799912 5.757883 5.419184 8.828754 7.880397 3.070871 2.461213 6.232062 4.674046 9.302933 6.480441l84.674752-86.368247 40.93742 40.86968-84.674752 86.368247c2.506373 4.945006 7.157839 10.838368 13.999559 17.634929 2.799912 2.777332 5.735303 5.419184 8.828754 7.925556 2.935391 2.348313 6.051422 4.515987 9.302933 6.480441l66.272106-67.559162 66.091466 236.705447c4.583727-3.43215 9.415832-7.451378 14.451158-12.012525a254.295215 254.295215 0 0 0 26.960441-27.4572c4.290187-4.967585 7.970717-9.664212 11.019007-14.044718l-65.030209-217.060904 214.509371 64.66893c4.651466-3.49989 9.167453-7.180419 13.547961-11.064168a244.495524 244.495524 0 0 0 36.173054-39.650363L543.499008 323.463197l69.884895-71.352591z m237.586064 407.206527c-35.337596 0-63.968953 28.879735-63.968953 64.510871 0 35.653716 28.631356 64.556031 63.968953 64.556031 35.315017 0 63.991533-28.924895 63.991532-64.556031s-28.676516-64.510871-63.991532-64.510871z"  horiz-adv-x="1024" />

    
    <glyph glyph-name="QQ" unicode="&#58931;" d="M512 896C229.228 896 0 666.772 0 384c0-282.745 229.228-512 512-512s512 229.255 512 512C1024 666.772 794.772 896 512 896z m226.856-637.063s-16.208-44.22-45.945-83.94c0 0 53.127-18.056 48.64-64.984 0 0 1.779-52.346-113.462-48.735 0 0-81.07 6.32-105.377 40.61h-21.424c-24.306-34.304-105.35-40.61-105.35-40.61-115.281-3.61-113.476 48.735-113.476 48.735-4.5 46.928 48.627 64.983 48.627 64.983-29.71 39.72-45.918 83.941-45.918 83.941-72.058-116.44-64.85 16.25-64.85 16.25 13.528 78.524 70.239 129.967 70.239 129.967-8.111 71.316 21.612 83.94 21.612 83.94C318.41 709.714 508.025 705.86 512 705.753c3.988 0.107 193.576 3.96 199.828-216.644 0 0 29.71-12.638 21.612-83.94 0 0 56.738-51.443 70.238-129.968 0-0.013 7.195-132.702-64.822-16.263z m0 0"  horiz-adv-x="1024" />

    
    <glyph glyph-name="tip-wrap" unicode="&#58896;" d="M77.111296 680.072192v-452.816896h174.159872v-139.329536l139.328512 139.329536h557.314048V680.072192z"  horiz-adv-x="1025" />

    
    <glyph glyph-name="tuangou" unicode="&#58908;" d="M960 384c0-247.424-200.576-448-448-448S64 136.576 64 384 264.576 832 512 832s448-200.576 448-448zM590 278.857v21.459c29 16.152 52.071 56.42 52.071 96.694 0 64.668 0.015 117.091-78.045 117.091s-78.063-52.423-78.063-117.091c0-40.274 23.038-80.542 52.038-96.694v-21.459C450 271.641 381.899 228 381.899 176h364.283c0 52-68.182 95.642-156.182 102.857z m-179.155-10.048c22.487 14.697 50.447 25.872 81.227 32.694-6.12 7.23-11.672 15.296-16.463 23.996-12.365 22.456-18.902 47.185-18.902 71.512 0 34.982 0 68.022 12.441 95.04 12.077 26.225 33.797 42.484 64.734 48.58-6.877 31.094-25.183 51.532-73.923 51.532-78.061 0-78.03-52.423-78.03-117.091 0-40.274 23.071-80.542 52.071-96.694v-21.458C346 349.702 277.818 306 277.818 254h113.434c5.903 5 12.439 10.184 19.592 14.859v-0.05z"  horiz-adv-x="1024" />

    
    <glyph glyph-name="wujiaoxing1" unicode="&#59000;" d="M512 763.841536l119.630848-249.731072 273.31072-40.1664-197.342208-197.351424 6.107136-39.289856 40.1664-235.764736-241.871872 129.23392-241.881088-129.23392 40.1664 235.764736 6.116352 39.289856-197.351424 197.351424 272.443392 40.1664 18.33984 37.545984 102.165504 212.185088z m0 53.2736c-25.322496 0-48.0256-13.975552-58.505216-35.802112L352.203776 570.862592l-233.153536-34.050048c-23.570432-3.495936-43.65312-19.21536-51.513344-42.785792-7.860224-23.579648-2.620416-45.406208 15.710208-63.745024l170.27584-170.27584-39.289856-236.64128c-4.363264-23.578624 6.107136-47.149056 26.19904-61.125632 12.223488-7.860224 22.703104-11.35616 37.545984-11.35616 11.346944 0 20.959232 2.619392 30.562304 7.8592l203.45856 109.151232 202.582016-109.151232c10.479616-6.107136 20.959232-7.8592 31.438848-7.8592 13.966336 0 26.189824 3.495936 37.545984 11.35616 20.082688 13.975552 30.562304 37.545984 26.189824 61.125632l-39.289856 236.64128 170.27584 170.27584c18.33984 18.33984 23.579648 40.1664 15.719424 63.745024-7.8592 23.570432-27.942912 39.289856-51.521536 42.785792l-233.14432 34.050048-101.291008 210.450432c-8.73472 22.703104-34.93376 35.802112-58.504192 35.802112z"  horiz-adv-x="1024" />

    
    <glyph glyph-name="shangquanzhekou" unicode="&#59082;" d="M1001.739469 622.592L748.811469 861.184c-2.048 2.048-5.12 4.096-7.168 6.144-2.048 2.048-5.12 4.096-7.168 5.12-11.264 6.144-23.552 8.192-35.84 5.12L361.739469 797.696c-17.408-4.096-35.84-18.432-45.056-33.792L6.411469 222.208c-13.312-22.528-5.12-52.224 17.408-65.536l450.56-262.144c7.168-4.096 15.36-6.144 23.552-6.144 10.24 0 20.48 3.072 28.672 9.216h449.536c26.624 0 48.128 21.504 48.128 48.128V571.392c0 17.408-9.216 38.912-22.528 51.2z m-144.384-112.64L788.747469 740.352 960.779469 578.56c1.024-1.024 3.072-5.12 3.072-7.168v-611.328H568.587469l283.648 494.592c7.168 15.36 10.24 37.888 5.12 55.296z m-59.392-25.6L494.859469-45.056 67.851469 203.776l303.104 529.408c1.024 1.024 5.12 4.096 6.144 4.096l325.632 77.824 97.28-322.56c-1.024-2.048-2.048-6.144-2.048-8.192zM612.619469 602.112c-5.12-9.216-14.336-14.336-24.576-14.336-5.12 0-10.24 1.024-14.336 4.096-13.312 8.192-18.432 25.6-10.24 39.936 5.12 9.216 14.336 14.336 24.576 14.336 5.12 0 10.24-1.024 14.336-4.096 13.312-8.192 18.432-26.624 10.24-39.936z m16.384 84.992c-12.288 7.168-26.624 11.264-40.96 11.264-28.672 0-56.32-15.36-70.656-40.96-22.528-38.912-9.216-89.088 29.696-111.616 12.288-7.168 26.624-11.264 40.96-11.264 28.672 0 56.32 15.36 70.656 40.96 22.528 38.912 9.216 89.088-29.696 111.616"  horiz-adv-x="1024" />

    
    <glyph glyph-name="zhinanzhen" unicode="&#59008;" d="M512 865.745455C244.363636 865.745455 30.254545 651.636364 30.254545 384S244.363636-97.745455 512-97.745455 993.745455 118.690909 993.745455 384 779.636364 865.745455 512 865.745455z m0-905.309091C276.945455-39.563636 88.436364 148.945455 88.436364 384S276.945455 807.563636 512 807.563636 935.563636 619.054545 935.563636 384 747.054545-39.563636 512-39.563636z m235.054545 672.581818L395.636364 544.581818c-20.945455-6.981818-37.236364-18.618182-44.218182-44.218182l-88.436364-337.454545c-2.327273-13.963636 16.290909-32.581818 30.254546-30.254546L628.363636 223.418182c20.945455 4.654545 34.909091 16.290909 44.218182 44.218182l102.4 337.454545c4.654545 11.636364-16.290909 30.254545-27.927273 27.927273z m-30.254545-74.472727L628.363636 295.563636c-2.327273-13.963636-16.290909-25.6-30.254545-30.254545l-262.981818-72.145455c-13.963636-2.327273-18.618182 2.327273-13.963637 13.963637L395.636364 472.436364c2.327273 13.963636 16.290909 25.6 30.254545 30.254545l276.945455 72.145455c11.636364 2.327273 16.290909-2.327273 13.963636-16.290909z m-204.8-116.363637c-32.581818 0-58.181818-25.6-58.181818-58.181818s25.6-58.181818 58.181818-58.181818 58.181818 25.6 58.181818 58.181818-25.6 58.181818-58.181818 58.181818z"  horiz-adv-x="1024" />

    
    <glyph glyph-name="leida2" unicode="&#58890;" d="M512.974 382.026m-495.026 0a495.026 495.026 0 1 1 990.052 0 495.026 495.026 0 1 1-990.052 0ZM759.115 608.035c-24.744 24.529-58.035 36.238-92.67 35.623l-0.053-0.485c-4.95-0.05-9.877-1.916-13.641-5.647-7.67-7.604-7.623-19.981 0.105-27.642 2.698-2.674 5.988-4.362 9.439-5.179l-0.031-0.3c0.434 0.027 0.86 0.001 1.294 0.026 2.468-0.418 4.986-0.375 7.433 0.14 22.808-0.405 44.242-8.254 60.265-24.141 17.747-17.593 25.564-41.762 24.229-67.078a19.45 19.45 0 0 1 5.447-17.522c7.712-7.646 20.194-7.669 27.881-0.049 5.979 5.928 7.231 14.711 3.888 21.931l2.338 0.303c0.17 33.667-11.628 65.93-35.924 90.02z m109.5-80.444c-2.612 49.836-22.088 97.512-58.907 134.015-36.811 36.493-84.884 55.797-135.138 58.396l-0.087-0.835c-5.358 0.255-10.797-1.58-14.891-5.637-7.701-7.633-7.702-20.007-0.005-27.638 4.957-4.914 11.884-6.617 18.253-5.202 38.865-3.138 75.613-18.563 103.975-46.678 28.329-28.083 43.881-64.467 47.072-102.949-1.419-6.303 0.292-13.145 5.226-18.034 7.681-7.616 20.162-7.588 27.88 0.061 4.001 3.966 5.888 9.202 5.751 14.386l0.871 0.115zM581.622 395.908l68.255 69.169c4.387-1.181 8.913-2.01 13.666-2.01 29.507 0 53.429 24.242 53.429 54.144 0 29.903-23.921 54.144-53.429 54.144-29.507 0-53.43-24.241-53.43-54.144 0-4.817 0.82-9.402 1.984-13.847l-68.258-69.171-216.99 219.896c-9.905 10.038-26.019 5.315-30.829-0.211-104.409-119.884-114.435-294.575-30.188-425.052-34.396-12.49-59.143-45.491-59.136-84.648 0.009-49.848 39.891-90.264 89.079-90.272 40.237-0.007 73.838 27.2 84.876 64.326 127.687-76.25 293.017-63.017 407.203 40.41 0.507 0.459-2.738-11.545 1.231 1.938s-0.891 25.726-1.455 26.555L581.622 395.908z"  horiz-adv-x="1024" />

    
    <glyph glyph-name="tingchejiaofei" unicode="&#59025;" d="M512 384m-512 0a512 512 0 1 1 1024 0 512 512 0 1 1-1024 0ZM865.152 411.968c-9.984 26.752-25.28 44.8-57.92 41.152-4.8-0.512-13.376 9.28-16 15.936a3477.312 3477.312 0 0 0-44.288 120.512 73.472 73.472 0 0 1-51.52 49.216c-33.472 9.28-67.968 14.848-102.016 22.08a497.472 497.472 0 0 1-149.12 0c-19.392-3.008-38.912-5.44-58.176-9.152-51.136-9.792-91.264-32-105.856-87.296-8.704-32.896-21.824-64.704-33.984-96.576-2.368-6.144-10.368-15.36-14.656-14.784-35.712 4.544-49.664-17.28-59.2-45.44-1.728-6.528-0.768-12.544 0-17.472l37.056-9.792c-0.704-51.52-1.472-102.784-1.984-153.984-0.256-27.584-1.344-55.232 0.512-82.688 0.896-12.672 5.632-32.448 12.608-37.376 5.12-6.784 96.896-6.528 113.984 0 7.808 3.008 11.712 43.264 18.24 67.2h336.32c8.256-22.656-7.552-50.56 18.112-67.2 7.68-5.312 106.688-5.632 111.168 1.984 4.672 2.944 11.456 21.056 11.648 32.64 1.28 65.152 0.896 130.368 0.384 195.584-0.064 14.272-3.264 28.608-4.992 42.688l39.68 10.88a45.632 45.632 0 0 1 0 21.888zM357.504 279.04c-11.776-2.752-24.768-3.2-37.12-3.2-18.112 1.92-36.48 2.432-54.144 6.08-22.976 4.8-29.44 21.888-22.528 52.48 4.736 20.928 21.184 21.824 35.904 17.024 29.568-9.664 58.624-21.504 86.848-34.56 6.784-3.136 14.976-16.448 13.056-21.632-2.688-7.296-13.504-14.208-22.016-16.192zM290.688 442.432c16.96 47.488 31.616 91.392 48.832 134.208 3.264 8.192 15.936 15.488 25.536 17.792 23.296 5.568 47.424 11.136 71.168 10.944 72.128-0.512 144.192-3.136 216.256-6.336 29.568-1.28 49.408-16.384 57.728-46.976 9.664-35.648 22.464-70.4 35.2-109.632-152-32.576-300.16-31.872-454.72 0z m484.928-159.488c-18.944-4.416-38.72-5.12-54.72-7.04-18.24 1.472-33.024 1.216-47.104 4.224-17.536 3.84-23.04 24.448-7.68 31.872a741.824 741.824 0 0 0 104.64 40.256c14.272 4.416 24.128-7.424 24.64-23.232 0.64-18.368 6.144-40.128-19.776-46.08z"  horiz-adv-x="1024" />

    
    <glyph glyph-name="email-oc" unicode="&#58923;" d="M0 384c0-282.77 229.23-512 512-512s512 229.23 512 512c0 282.77-229.23 512-512 512-282.77 0-512-229.23-512-512zM512 334.769l246.154 186.309v-309.386c0.014-0.303 0.022-0.659 0.022-1.017 0-12.619-9.891-22.927-22.343-23.596l-447.607-0.003c-12.506 0.639-22.405 10.935-22.405 23.543 0 0.377 0.009 0.752 0.026 1.125l-0.002 305.060zM265.846 556.308c-0.016 0.32-0.024 0.695-0.024 1.073 0 12.608 9.898 22.904 22.348 23.54l447.604 0.002c12.511-0.671 22.402-10.98 22.402-23.599 0-0.358-0.008-0.713-0.024-1.067l-246.152-184.565z"  horiz-adv-x="1024" />

    
    <glyph glyph-name="correct" unicode="&#58897;" d="M512 896c-282.77 0-512-229.23-512-512s229.23-512 512-512 512 229.23 512 512-229.23 512-512 512zM451.237 149.961l-3.456 3.493-11.246-10.953-251.465 258.487 93.184 90.642 163.602-168.174 305.682 302.043 91.374-92.471-387.675-383.067z"  horiz-adv-x="1024" />

    
    <glyph glyph-name="error" unicode="&#58898;" d="M620.70784 387.85024l355.65568 355.65568A79.58528 79.58528 0 1 1 863.80544 856.064l-355.65568-355.65568L152.49408 856.064A79.58528 79.58528 0 1 1 39.936 743.50592l355.65568-355.65568-355.65568-355.65568a79.58528 79.58528 0 0 1 112.55808-112.55808l355.65568 355.65568 355.65568-355.65568a79.58528 79.58528 0 1 1 112.55808 112.55808l-355.65568 355.65568z"  horiz-adv-x="1024" />

    
    <glyph glyph-name="error1" unicode="&#58964;" d="M512.57-127.716C229.927-127.716 0 101.892 0 384.146 0 666.393 229.928 896 512.57 896c282.648 0 512.576-229.607 512.576-511.854 0-282.254-229.928-511.862-512.577-511.862z m0 950.265c-242.078 0-439.016-196.664-439.016-438.403 0-241.709 196.938-438.41 439.015-438.41 242.046 0 439.023 196.701 439.023 438.41 0 241.74-196.977 438.403-439.023 438.403z m51.552-439.977l158.314 156.373c14.385 14.182 14.496 37.328 0.29 51.693-14.207 14.372-37.418 14.483-51.77 0.297l-158.531-156.56-156.112 156.376c-14.318 14.292-37.459 14.37-51.772 0.071-14.317-14.259-14.351-37.4-0.071-51.698l155.894-156.15-157.18-155.275c-14.385-14.226-14.498-37.328-0.29-51.7 7.173-7.24 16.587-10.855 26.033-10.855a36.625 36.625 0 0 1 25.737 10.566l157.398 155.453 158.675-158.968c7.14-7.162 16.514-10.744 25.922-10.744 9.375 0 18.71 3.582 25.849 10.672 14.313 14.26 14.353 37.367 0.073 51.699l-158.459 158.75z"  horiz-adv-x="1026" />

    
    <glyph glyph-name="chaxun" unicode="&#58891;" d="M999.68 15.786667l-249.173333 249.173333c41.813333 64 66.133333 140.8 66.133333 222.72C816.64 712.96 634.026667 896 408.32 896 183.04 896 0 712.96 0 487.68c0-225.706667 183.04-408.32 408.32-408.32 82.773333 0 160 24.746667 224.426667 67.413333l248.746666-248.746666c32.426667-32.426667 85.333333-32.426667 117.76 0 32.853333 32.426667 32.853333 85.333333 0.426667 117.76zM137.813333 487.68c0 150.613333 122.026667 272.64 272.64 272.64s272.64-122.026667 272.64-272.64-122.026667-272.64-272.64-272.64S137.813333 337.066667 137.813333 487.68z"  horiz-adv-x="1024" />

    
    <glyph glyph-name="inputAccessory-you-normal" unicode="&#59292;" d="M424.197 688.361l303.045-303.029-302.957-305.284-42.157 41.812 261.292 263.299-261.204 261.218z"  horiz-adv-x="1024" />

    
    <glyph glyph-name="dianhua" unicode="&#58885;" d="M699.017 197.461c-26.078 25.225-77.108 67.516-125.338 67.55-16.111 0-30.993-4.642-43.247-13.482l-30.754-22.255c-48.162 10.24-97.553 52.224-132.676 113.083-35.192 60.86-46.865 124.587-31.71 171.418l34.645 15.565c44.169 19.865 58.505 76.936 40.516 160.836-14.506 67.516-63.76 195.14-146.739 195.14a76.73 76.73 0 0 1-23.688-3.754L181.35 862.583C131.072 846.268 93.218 804.08 82.534 752.401c-31.47-151.62 7.988-338.159 108.237-511.795 100.318-173.602 242.244-301.022 389.223-349.491 14.95-4.881 30.447-7.407 46.148-7.407 36.523 0 71.612 13.448 98.68 37.888l45.738 41.301c16.247 14.643 39.902 48.606 15.701 111.548-14.609 38.024-47.991 85.162-87.244 123.016z m38.195-197.598l-45.739-41.3c-17.92-16.18-41.199-25.089-65.331-25.089a96.64 96.64 0 0 0-30.515 4.915c-135.646 44.715-267.503 163.943-361.78 327.134-94.208 163.158-131.652 336.964-102.57 476.775 7.1 34.201 32.12 62.156 65.4 72.943l58.64 19.046c2.8 0.853 5.564 1.297 8.397 1.297 38.707 0 81.988-80.555 98.133-155.853 11.845-55.125 6.964-96.324-12.22-105.028l-52.667-23.62-1.331-2.765c-29.252-61.508-18.432-149.982 28.262-230.844 46.729-80.93 117.93-134.485 185.856-139.878l3.072-0.24 46.763 33.827c3.755 2.73 8.328 4.062 14.097 4.062 46.25-0.034 139.4-88.952 166.127-158.584 7.134-18.432 12.459-43.28-2.594-56.798zM906.377 623.718C851.66 731.546 758.237 811.588 643.243 849.135a24.52 24.52 0 0 1-7.714 1.263c-10.787 0-20.276-6.895-23.62-17.17-4.233-13.004 2.9-27.067 15.94-31.334C730.18 768.478 813.363 697.207 862.003 601.26c48.777-95.983 57.174-205.176 23.757-307.508-4.267-13.038 2.901-27.101 15.974-31.334a23.993 23.993 0 0 1 7.68-1.263c10.787 0 20.344 6.895 23.689 17.17 37.512 114.926 27.99 237.567-26.726 345.394zM596.65 706.287c-2.491 0.785-5.085 1.229-7.748 1.229-10.786 0-20.343-6.895-23.62-17.17-4.267-13.004 2.901-27.101 15.906-31.334 64.103-20.89 116.19-65.604 146.774-125.883 30.583-60.28 35.976-128.717 14.95-192.751-4.233-13.04 2.935-27.102 15.974-31.403a26.033 26.033 0 0 1 7.749-1.195c10.786 0 20.309 6.895 23.62 17.135 25.02 76.698 18.67 158.618-17.92 230.707-36.66 72.124-99.055 125.611-175.684 150.665zM534.528 516.198c53.726-17.578 83.08-75.503 65.536-129.194-4.233-13.005 2.935-27.068 15.974-31.369 2.492-0.785 5.086-1.229 7.68-1.229 10.82 0 20.344 6.93 23.689 17.17 26.078 79.735-17.681 165.82-97.417 191.897a24.57 24.57 0 0 1-7.748 1.263c-10.786 0-20.275-6.895-23.654-17.135-4.233-13.107 2.901-27.17 15.94-31.403z"  horiz-adv-x="1024" />

    
    <glyph glyph-name="pinpai" unicode="&#58894;" d="M209.454545 25.6h619.054546v-69.818182H209.454545zM1024 477.090909c0 60.509091-46.545455 107.054545-107.054545 107.054546-60.509091 0-107.054545-46.545455-107.054546-107.054546v-13.963636l-102.4-60.509091-125.672727 218.763636c23.272727 18.618182 37.236364 46.545455 37.236363 79.127273 0 60.509091-46.545455 107.054545-107.054545 107.054545s-107.054545-46.545455-107.054545-107.054545c0-32.581818 13.963636-65.163636 41.890909-83.781818L325.818182 402.618182 204.8 467.781818c4.654545 9.309091 4.654545 18.618182 4.654545 27.927273 0 60.509091-46.545455 107.054545-107.054545 107.054545C46.545455 602.763636 0 556.218182 0 495.709091c0-55.854545 41.890909-102.4 97.745455-107.054546l93.090909-293.236363c4.654545-13.963636 18.618182-23.272727 32.581818-23.272727h581.818182c13.963636 0 27.927273 9.309091 32.581818 23.272727l79.127273 269.963636C977.454545 374.690909 1024 421.236364 1024 477.090909zM516.654545 742.4c18.618182 0 37.236364-13.963636 37.236364-37.236364s-13.963636-37.236364-37.236364-37.236363c-18.618182 0-37.236364 13.963636-37.236363 37.236363s18.618182 37.236364 37.236363 37.236364zM69.818182 495.709091c0 18.618182 13.963636 37.236364 37.236363 37.236364 18.618182 0 32.581818-13.963636 32.581819-37.236364s-13.963636-32.581818-32.581819-32.581818c-18.618182 0-37.236364 13.963636-37.236363 32.581818z m712.145454-349.090909H251.345455l-83.781819 265.309091 153.6-83.781818c18.618182-9.309091 37.236364-4.654545 46.545455 13.963636l148.945454 260.654545 148.945455-260.654545c4.654545-9.309091 13.963636-13.963636 23.272727-18.618182 9.309091-4.654545 18.618182 0 27.927273 4.654546l130.327273 74.472727 9.309091-9.309091-74.472728-246.690909z m134.981819 297.890909c-18.618182 0-32.581818 13.963636-32.581819 32.581818s13.963636 37.236364 37.236364 37.236364c18.618182 0 37.236364-13.963636 37.236364-37.236364s-23.272727-32.581818-41.890909-32.581818z"  horiz-adv-x="1024" />

    
    <glyph glyph-name="hello" unicode="&#58899;" d="M118.281583 735.586193m-20.969125 0a20.969125 20.969125 0 1 1 41.93825 0 20.969125 20.969125 0 1 1-41.93825 0ZM871.073173 74.010297V661.145799q0 26.211406-17.823756 46.656303t-45.083619 31.715802-54.257611 16.7753T703.320173 761.7976t-50.588014-5.504396-54.257612-16.7753-45.083618-31.715802-17.823757-46.656303 17.823757-46.656303 45.083618-31.715802 54.257612-16.7753T703.320173 560.493999q55.043953 0 100.6518 20.444897v-281.510504L401.364772 423.670458V795.3482q0 26.211406-17.823757 46.656303t-45.083619 31.715802-54.257611 16.7753T233.611771 896t-50.588014-5.504395-54.257611-16.7753T83.682527 842.004503 65.85877 795.3482t17.823757-46.656304 45.083619-31.715801 54.257611-16.7753T233.611771 694.696399q55.043953 0 100.6518 20.444897v-506.928599q0-16.251072 9.960335-29.618889t25.687178-18.610098l436.157802-134.202401q6.290738-2.096913 14.678387-2.096912 20.969125 0 35.647513 14.678387t14.678387 35.647513z"  horiz-adv-x="1024" />

    
    <glyph glyph-name="JD" unicode="&#59241;" d="M694.24128-128H329.76384C147.9168-128 0 19.91168 0 201.75872V566.23616C0 748.0832 147.9168 896 329.76384 896h364.47744C876.08832 896 1024 748.0832 1024 566.23616v-364.47744C1024 19.91168 876.08832-128 694.24128-128zM329.76384 843.91936c-153.10336 0-277.67808-124.57472-277.67808-277.6832v-364.47744c0-153.09824 124.57472-277.68832 277.67808-277.68832h364.47744c153.09824 0 277.67808 124.57984 277.67808 277.68832V566.23616c0 153.10336-124.57984 277.67808-277.67808 277.67808l-364.47744 0.00512zM626.3296 153.83552H462.98624V653.51168h163.34336c135.24992 0 244.95104-111.86688 244.95104-249.84576-0.01024-137.97888-109.70112-249.8304-244.95104-249.8304z m0 440.89856h-97.99168v-382.08512h97.99168c99.16928 0 179.63008 85.5296 179.63008 191.02208 0 105.51808-80.4608 191.06304-179.63008 191.06304z m-440.92928-440.89856h-32.67584V212.5824h32.67584c72.1408 0 130.63168 52.63872 130.63168 117.60128v323.328h65.34656v-323.32288c-0.00512-97.37728-87.76192-176.35328-195.97824-176.35328z"  horiz-adv-x="1024" />

    
    <glyph glyph-name="activity_fill" unicode="&#59102;" d="M799.84 752H672V768a32 32 0 0 1-64 0v-16h-192V768a32 32 0 0 1-64 0v-16H223.712C188.576 752 160 721.984 160 685.088V592h704V685.088c0 36.896-28.768 66.912-64.16 66.912M640 400a32 32 0 0 0 0-64h-256a32 32 0 0 0 0 64h256z m-288-192a32 32 0 0 0 32 32h256a32 32 0 0 0 0-64h-256a32 32 0 0 0-32 32z m480 320H160v-477.12c0-36.864 28.608-66.88 63.744-66.88h576.512c35.136 0 63.744 30.016 63.744 66.88V528h-32z"  horiz-adv-x="1024" />

    
    <glyph glyph-name="qq" unicode="&#58947;" d="M511.999488-64.227558c-247.298316 0-448.227558 200.929242-448.227557 448.227558S264.701173 832.227558 511.999488 832.227558 960.227046 631.298316 960.227046 384 759.297804-64.227558 511.999488-64.227558z m0 880.999099c-239.570307 0-432.771541-193.201234-432.771541-432.771541s193.201234-432.771541 432.771541-432.771541S944.771029 144.429693 944.771029 384 751.569796 816.771541 511.999488 816.771541zM680.471504 317.539332c-6.182816-20.092617-9.274224-32.458249-29.366841-54.096059-1.545192-1.545192 23.184025-9.274224 29.366841-27.820625 6.182816-17.002232 18.547425-44.822858-63.370283-52.550867-47.914266-4.6366-83.4629 24.730241-86.554308 24.730241h-21.638833c-1.545192 0-17.002232-24.730241-89.645716-24.730241-55.642275 0-69.552076 34.003442-58.733682 52.550867 10.819416 18.547425 29.366841 24.730241 27.820625 27.820625-12.364609 13.910824-21.638833 30.912034-27.820625 44.822859-1.545192 3.091408-3.091408 6.182816-3.091408 10.819416-1.545192 7.728008-17.002232-44.822858-34.003442-32.458249-17.002232 12.364609-15.456017 41.73145-4.636601 71.098291s38.640042 57.187467 38.640043 63.370283c1.545192 23.184025-3.091408 27.820626 0 32.458249 4.6366 13.910824 12.364609 7.728008 12.364608 15.456017 0 89.645716 68.006883 162.2892 153.015999 162.2892 83.4629 0 153.015999-72.644507 153.016-162.2892 0-3.091408 9.274224 0 13.910824-15.456017 1.545192-3.091408 1.545192-15.456017 0-32.458249 0-7.728008 23.184025-18.547425 35.549657-63.370283 12.364609-44.822858 0-66.461691-6.182816-71.098291-17.001209-13.911848-35.548634 38.640042-38.640042 30.912033z"  horiz-adv-x="1024" />

    
    <glyph glyph-name="leida3" unicode="&#58886;" d="M1024 384C1024 666.4 794.4 896 512 896 369.8 896 251.6 846.8 150.6 745.4c-6.6-6.6-6.6-17.4 0-24l96-96L500 372c6.6-6.6 17.4-6.6 24.2 0s6.6 17.4 0 24.2l-47.2 47.2c10 5.8 21.6 9 35.2 9 37.6 0 68.2-30.6 68.2-68.2S549.8 316 512.2 316 444 346.6 444 384.2c0 9.4-7.6 17-17 17s-17-7.6-17-17c0-56.4 46-102.4 102.4-102.4s102.4 46 102.4 102.4-46 102.4-102.4 102.4c-23 0-43.4-6.4-60-18.4l-72.2 72.2c37 31.4 83.2 48.6 132.2 48.6 113 0 204.8-91.8 204.8-204.8 0-90-57.8-168-142.2-195-10.4 24.2-34.6 41.4-62.6 41.4s-52.2-17-62.6-41.4C365 216 307.2 294 307.2 384c0 31 7 61.2 20.8 89.4 4.2 8.4 0.6 18.6-7.8 22.8-8.4 4.2-18.8 0.6-22.8-7.8-16-33-24.2-68.2-24.2-104.4 0-106.8 70-199.2 171.4-229 3.6-34.2 32.4-61 67.6-61s63.8 26.8 67.6 61c101.4 29.8 171.4 122.2 171.4 229 0 131.8-107.2 239-239 239-58 0-112.8-20.8-156.2-58.6l-72.4 72.4c62.8 57 143.2 88.6 228.6 88.6 69.6 0 135.8-20.8 192.8-60-3.2-7.8-5-16.4-5-25.4 0-37.6 30.6-68.2 68.2-68.2 9 0 17.6 1.8 25.4 5 39-56.8 60-123.2 60-192.8 0-188.2-153.2-341.4-341.4-341.4S170.6 195.8 170.6 384c0 66.8 19.4 131.6 56.2 187.6 5.2 7.8 3 18.4-4.8 23.6-7.8 5.2-18.4 3-23.6-4.8-40.6-61.4-62-132.8-62-206.4 0-207 168.4-375.4 375.4-375.4S887.4 177 887.4 384c0 77-23.2 150.4-66.8 213.2 9.6 11.8 15.6 26.6 15.6 42.8 0 37.6-30.6 68.2-68.2 68.2-16.2 0-31-6-42.8-15.6-62.8 43.6-136.2 66.8-213.2 66.8-94.6 0-183.4-35.2-252.8-98.6L187 733.2c91.4 86.6 198 128.6 325 128.6 263.6 0 477.8-214.4 477.8-477.8 0-103.4-34.2-204.4-96-286.6-11.4 8.4-25.2 13.6-40.4 13.6-37.6 0-68.2-30.6-68.2-68.2 0-15.2 5.2-29.2 13.6-40.4-82.4-61.8-183.2-96-286.6-96-263.8-0.2-478 214.2-478 477.6 0 90.4 25.4 178.4 73.4 254.4 5 8 2.6 18.6-5.4 23.6s-18.6 2.6-23.6-5.4C27.2 575 0 480.8 0 384c0-282.4 229.6-512 512-512 113.8 0 224.6 38.6 314 108.2 8.4-3.6 17.6-5.8 27.2-5.8 37.6 0 68.2 30.6 68.2 68.2 0 9.6-2 18.8-5.8 27.2C985.4 159.4 1024 270.4 1024 384zM512 128c-18.8 0-34.2 15.4-34.2 34.2s15.4 34.2 34.2 34.2c18.8 0 34.2-15.4 34.2-34.2S530.8 128 512 128z m256 546.2c18.8 0 34.2-15.4 34.2-34.2 0-9.4-3.8-17.8-9.8-24-1.6-0.6-3.2-1.2-4.6-2.2-1.2-1-2-2.2-3-3.4-5-2.8-10.6-4.6-16.6-4.6-18.8 0-34.2 15.4-34.2 34.2-0.2 18.8 15.2 34.2 34 34.2z m85.4-665.6c-5 0-9.8 1.2-14 3-0.2 0.2-0.2 0.4-0.2 0.4-2.2 2.8-5.2 4.2-8.4 5.2-7 6.2-11.4 15.2-11.4 25.4 0 18.8 15.4 34.2 34.2 34.2s34.2-15.4 34.2-34.2-15.6-34-34.4-34zM512 162.2m-43.4 0a43.4 43.4 0 1 1 86.8 0 43.4 43.4 0 1 1-86.8 0ZM512 384m-72.4 0a72.4 72.4 0 1 1 144.8 0 72.4 72.4 0 1 1-144.8 0ZM768 640.2m-43.4 0a43.4 43.4 0 1 1 86.8 0 43.4 43.4 0 1 1-86.8 0ZM855 42.2m-43.4 0a43.4 43.4 0 1 1 86.8 0 43.4 43.4 0 1 1-86.8 0Z"  horiz-adv-x="1024" />

    
    <glyph glyph-name="zhengque" unicode="&#58900;" d="M793.846 469.654c12.19 12.178 18.668 27.248 19.41 45.164 0.632 18.060-5.105 33.106-17.417 45.309-12.191 12.203-27.261 18.158-44.933 17.793-17.672-0.364-32.73-6.587-44.92-18.79l-288.12-286.879-99.2 97.718c-12.19 12.178-27.248 18.4-44.92 18.79-17.672 0.364-32.73-5.616-44.921-17.794-12.324-12.202-18.547-26.641-18.922-43.194-0.378-16.676 5.602-31.114 17.926-43.317l142.006-142.37c12.19-12.203 28.246-18.183 48.032-17.793 19.665 0.364 35.72 6.587 47.91 18.79l-3.986-4.108 332.056 330.681zM512.823 831.693c61.972 0 120.092-11.692 174.238-35.1 54.146-23.409 101.424-55.373 142.006-96.089 40.569-40.691 72.558-88.237 96.076-142.37 23.53-54.255 35.222-112.254 35.222-173.995 0-61.718-11.692-119.837-35.222-174.359-23.518-54.644-55.507-102.287-96.076-143.002-40.582-40.692-87.86-72.68-142.006-96.065-54.146-23.409-112.266-35.101-174.238-35.101s-120.214 11.692-174.736 35.101c-54.51 23.384-101.922 55.372-142.492 96.065-40.582 40.715-72.558 88.358-96.088 143.002-23.529 54.521-35.222 112.641-35.222 174.359 0 61.741 11.692 119.74 35.222 173.995 23.53 54.133 55.506 101.679 96.088 142.37 40.57 40.716 87.982 72.68 142.492 96.089 54.523 23.408 112.765 35.1 174.736 35.1z"  horiz-adv-x="1024" />

    
    <glyph glyph-name="xiala" unicode="&#59080;" d="M772.707 535.44c0-6.909-2.346-13.82-7.16-19.621L512.956 213.004c-6.172-7.343-15.429-11.663-25.301-11.663-9.745 0-19.062 4.32-25.173 11.663L211.245 514.527c-11.23 13.449-9.006 33.131 4.936 43.924 13.942 10.737 34.307 8.64 45.533-4.808l226.069-271.231 227.356 272.589c11.17 13.449 31.531 15.545 45.473 4.808 7.898-6.227 12.095-15.234 12.095-24.369z"  horiz-adv-x="1024" />

    
    <glyph glyph-name="shijian-copy" unicode="&#58880;" d="M577.726 511.462c14.941 14.941 23.636 35.935 23.636 57.058 0 21.128-8.696 42.123-23.636 57.065-14.936 14.936-35.93 23.636-57.058 23.636-21.123 0-42.124-8.7-57.060-23.636-14.941-14.942-23.636-35.936-23.636-57.065 0-21.123 8.695-42.118 23.636-57.058 14.936-14.936 35.936-23.636 57.060-23.636 21.128-0.001 42.122 8.7 57.058 23.636zM515.014 25.51h0.005c15.676 0 30.441 7.269 39.821 19.612 86.684 113.987 284.73 389.47 284.73 527.018 0 176.096-145.304 318.839-324.556 318.839-179.242 0-324.547-142.743-324.547-318.839 0-137.549 198.057-413.051 284.731-527.029 9.38-12.337 24.14-19.601 39.816-19.601zM515.014 832.853c146.334 0 265.386-116.946 265.386-260.707 0-77.229-92.303-248.365-243.070-452.381-5.192-7.020-13.48-11.17-22.311-11.17-8.83 0-17.12 4.149-22.311 11.17-150.774 204.015-243.077 375.142-243.077 452.381 0 143.761 119.057 260.707 265.383 260.707zM916.742 77.145c-15.574 15.402-36.898 28.131-61.641 36.796-25.365 8.882-53.388 13.389-83.323 13.389l-3.745-0.031-4.476-0.389c-13.801-1.353-24.62-12.853-25.164-26.749-0.312-7.467 2.331-14.611 7.398-20.104 5.083-5.494 11.983-8.681 19.444-8.975l32.779-1.282 1.802 0.055c47.793-6.008 71.542-26.282 77.711-32.375 7.104-7.017 11.518-14.85 11.518-20.446 0-9.589-20.112-32.88-96.223-52.416-70.453-18.068-169.846-28.023-279.878-28.023-110.125 0-210.102 10.064-281.504 28.326-77.361 19.793-97.807 43.13-97.807 52.704 0 13.685 4.259 21.837 15.177 29.087 14.704 9.769 39.082 16.181 71.915 19.078 1.095-0.17 2.216-0.272 5.277-0.272 0.164 0 32.29 1.842 32.29 1.842 15.411 0.91 27.223 14.168 26.329 29.57-0.87 15.014-13.482 26.329-29.335 26.329-0.032 0-4.764-0.273-4.74-0.273-61.035-1.321-104.405-11.073-132.599-29.802-26.6-17.679-40.091-43.098-40.091-75.558 0-26.407 14.96-49.557 44.474-68.799 22.714-14.812 54.772-27.58 95.289-37.939 75.816-19.405 180.696-30.083 295.329-30.083 114.57 0 218.89 10.577 293.726 29.787 40.085 10.273 71.807 22.995 94.296 37.806 29.094 19.163 43.845 42.26 43.845 68.634-0.003 21.18-9.702 41.968-28.073 60.113z"  horiz-adv-x="1024" />

    
    <glyph glyph-name="woshou" unicode="&#59118;" d="M199.1936 230.528a7.9872 7.9872 0 0 1 3.47648 10.74688c-33.45408 65.62816-44.84608 132.19328-44.9536 132.864a8.0384 8.0384 0 0 1-9.20064 6.56384 7.99744 7.99744 0 0 1-6.56896-9.19552c0.46592-2.81088 11.85792-69.5808 46.48448-137.49248 1.36192-2.67776 4.1216-4.37248 7.12704-4.37248 1.26464 0.01024 2.5088 0.3072 3.6352 0.88576zM296.81152 169.33376a47.60064 47.60064 0 0 1 14.04416 33.90464 47.65696 47.65696 0 0 1-14.06464 33.90976c-18.11968 18.10944-49.6896 18.14016-67.80928 0.01536l-22.60992-22.60992c-18.69824-18.69824-18.69824-49.13664 0-67.84512a47.5648 47.5648 0 0 1 33.89952-14.03904h0.00512a47.6672 47.6672 0 0 1 33.92 14.0544l22.61504 22.60992z m-56.53504-20.67456h-0.00512a31.71328 31.71328 0 0 0-22.59456 9.34912c-12.46208 12.48256-12.46208 32.768 0 45.2352l22.60992 22.60992a31.72864 31.72864 0 0 0 22.58944 9.36448c8.54016 0 16.5632-3.33312 22.62016-9.37984 6.0416-6.0416 9.37472-14.06464 9.37472-22.59968s-3.31776-16.55808-9.36448-22.59968l-22.60992-22.60992a31.77984 31.77984 0 0 0-22.62016-9.3696zM607.7184 401.08032l-0.00512 0.00512a7.9872 7.9872 0 0 1-11.29472-0.00512l-0.01024-0.00512a7.9872 7.9872 0 0 1 0.01024-11.29984l209.152-209.14176a32.04096 32.04096 0 0 0 0-45.25056c-12.46208-12.46208-32.74752-12.44672-45.21984 0l-62.18752 62.208-0.01024 0.00512a7.99232 7.99232 0 0 1-11.29984-0.00512v-0.00512a7.99232 7.99232 0 0 1 0-11.29984l62.19776-62.21312a47.89248 47.89248 0 0 1 33.92-14.0032 47.7696 47.7696 0 0 1 33.90464 14.01344c18.7136 18.70336 18.7136 49.152 0 67.86048l-209.15712 209.13664zM387.26144 101.50912a47.65696 47.65696 0 0 1 14.0544 33.90976 47.5648 47.5648 0 0 1-14.0544 33.89952c-18.10432 18.14016-49.72544 18.1504-67.84512 0.01536l-33.93024-33.91488a47.65184 47.65184 0 0 1-14.03904-33.93536 47.60576 47.60576 0 0 1 14.06976-33.90464 47.54432 47.54432 0 0 1 33.89952-14.03904 47.6672 47.6672 0 0 1 33.91488 14.03904l33.93024 33.93024z m-90.43456-22.6304a31.82592 31.82592 0 0 0-9.38496 22.60992 31.77984 31.77984 0 0 0 9.34912 22.62528l33.93024 33.91488a31.75424 31.75424 0 0 0 22.60992 9.36448 31.75424 31.75424 0 0 0 22.63552-9.39008 31.6928 31.6928 0 0 0 9.36448-22.58432 31.77984 31.77984 0 0 0-9.3696-22.60992l-33.93024-33.93024c-12.08832-12.06784-33.152-12.06784-45.20448 0zM375.95648 361.52832a47.86176 47.86176 0 0 1 33.93024-14.03392 47.80544 47.80544 0 0 1 33.89952 14.01856c25.16992 25.15456 97.59232 83.27168 130.02752 50.88768l0.00512-0.00512a7.99232 7.99232 0 0 1 11.29472 11.30496c-50.29888 50.24768-148.47488-46.73024-152.6272-50.88256a32.00512 32.00512 0 0 0-45.21984 0.01536 32 32 0 0 0 0 45.20448L460.7488 491.55072c65.14176 65.14176 220.04736 87.95648 221.60896 88.17152a7.99744 7.99744 0 0 1 6.784 9.05216c-0.63488 4.3776-4.72576 7.48032-9.05216 6.784-6.56384-0.94208-161.72544-23.7824-230.64576-92.70272L375.95648 429.34272c-18.69824-18.69824-18.69824-49.11104 0-67.8144zM334.94016 568.73472a7.99744 7.99744 0 0 1 3.38944-10.78784c0.37376-0.19456 38.03136-19.76832 93.53728-43.008a7.9872 7.9872 0 0 1 10.4448 4.28032 8.00256 8.00256 0 0 1-4.27008 10.47552c-54.8352 22.95296-91.93472 42.23488-92.30336 42.43456a7.9872 7.9872 0 0 1-10.79808-3.39456zM579.44064-45.48608a7.99744 7.99744 0 0 1-11.29984-0.00512l-0.00512-0.01024a7.99232 7.99232 0 0 1 0.00512-11.29472 32.00512 32.00512 0 0 0 0.03072-45.21984c-12.46208-12.47744-32.75776-12.48768-45.25056-0.01536a7.99744 7.99744 0 0 1-11.30496 0l-0.00512-0.01024a7.9872 7.9872 0 0 1 0.00512-11.29472 47.84128 47.84128 0 0 1 33.92-14.01856 47.90272 47.90272 0 0 1 33.94048 14.03392c18.688 18.7136 18.67264 49.14176-0.03584 67.83488 0-0.00512 0-0.00512 0 0zM596.39808 95.85152a8.00256 8.00256 0 0 1-11.31008-11.30496l62.1824-62.20288c12.47744-12.47744 12.48256-32.768 0.01536-45.2352-12.07296-12.07808-33.14688-12.04736-45.21472 0.03072l-0.01024 0.00512a7.9872 7.9872 0 0 1-11.29984-0.00512l-0.00512-0.00512a7.99744 7.99744 0 0 1 0.00512-11.29984 47.6928 47.6928 0 0 1 33.95072-14.06464 47.57504 47.57504 0 0 1 33.87904 14.03392c18.69824 18.69312 18.69824 49.13664-0.02048 67.84l-62.17216 62.208zM545.53088-56.79616c18.69824 18.69824 18.69824 49.13152 0 67.82976-18.0992 18.1248-49.68448 18.14016-67.82976 0.01536l-33.92-33.92c-18.68288-18.71872-18.68288-49.15712 0.00512-67.84a47.65184 47.65184 0 0 1 33.90464-14.04928h0.01024a47.68768 47.68768 0 0 1 33.93024 14.06464l33.89952 33.89952z m-67.82976-31.9744h-0.01024a31.74912 31.74912 0 0 0-22.59968 9.36448c-12.46208 12.46208-12.45184 32.75264 0 45.2352l33.90464 33.90976a31.83616 31.83616 0 0 0 22.62528 9.35936 31.70816 31.70816 0 0 0 22.6048-9.3696 32.01024 32.01024 0 0 0 0-45.21984l-33.89952-33.89952a31.77984 31.77984 0 0 0-22.62528-9.37984zM477.70112 33.65888c18.70336 18.70336 18.70336 49.13664 0 67.84512-18.07872 18.11968-49.69984 18.10432-67.82976 0l-45.21984-45.21984c-18.688-18.7136-18.688-49.152 0-67.86048a47.62624 47.62624 0 0 1 33.89952-14.04416 47.69792 47.69792 0 0 1 33.93024 14.05952l45.21984 45.21984z m-79.15008-43.2896a31.744 31.744 0 0 0-22.59456 9.35936 32.05632 32.05632 0 0 0 0 45.25056l45.21984 45.21984a31.77984 31.77984 0 0 0 22.62528 9.34912 31.71328 31.71328 0 0 0 22.59456-9.34912 32.03584 32.03584 0 0 0 0-45.24032l-45.21984-45.21472a31.80544 31.80544 0 0 0-22.62528-9.37472zM675.54816 174.97088a8.00256 8.00256 0 0 1-11.31008-11.30496l62.19264-62.16192c12.47744-12.47744 12.47744-32.77312 0-45.25056s-32.75264-12.47744-45.2352 0l-62.17728 62.17728a7.99232 7.99232 0 0 1-11.30496-11.29984l62.1824-62.1824c9.34912-9.35424 21.632-14.0288 33.92-14.0288s24.57088 4.67456 33.92 14.0288c18.70848 18.70336 18.70848 49.152 0 67.86048l-62.18752 62.16192zM874.13248 403.39456a7.90528 7.90528 0 0 1-8.68864-7.23968c-0.09216-0.96256-9.28768-96.75264-57.0112-163.67104a7.99232 7.99232 0 0 1 13.02016-9.2928c50.21184 70.40512 59.54048 167.41888 59.90912 171.50976a8.00256 8.00256 0 0 1-7.22944 8.69376zM935.58784 446.30016l-28.2624-28.26752-203.50464 203.52 28.26752 28.26752a8.00256 8.00256 0 0 1 0 11.30496 8.00256 8.00256 0 0 1-11.30496 0l-33.91488-33.92c-0.37888-0.37888-0.7168-0.7936-1.00864-1.23904-0.16384-0.25088-0.2816-0.52224-0.41472-0.78336-0.10752-0.19968-0.2304-0.384-0.31744-0.5888-0.14336-0.3584-0.24064-0.72704-0.32768-1.09568-0.03584-0.13312-0.09216-0.256-0.11264-0.39424-0.10752-0.512-0.1536-1.03424-0.1536-1.55136l0.01024-0.09728c0.00512-0.49152 0.0512-0.97792 0.14336-1.46432 0.05632-0.26112 0.14848-0.50688 0.22528-0.75776 0.0768-0.24064 0.128-0.49152 0.2304-0.73216 0.12288-0.3072 0.29696-0.58368 0.45568-0.86528 0.09728-0.16896 0.16384-0.34304 0.27648-0.50688 0.30208-0.45056 0.64-0.86528 1.01888-1.24416l214.78912-214.80448a7.97696 7.97696 0 0 1 11.36128 0.05632l33.86368 33.85856a8.00256 8.00256 0 0 1-11.32032 11.30496zM278.56384 661.67808a7.9872 7.9872 0 0 1-11.30496-0.0256L52.9152 446.38208a7.99232 7.99232 0 1 1 11.33056-11.27936l214.33856 215.26528a7.9872 7.9872 0 0 1-0.02048 11.31008zM972.88192 469.89824l-212.37248 217.216a7.99744 7.99744 0 0 1-11.43296-11.17696l212.37248-217.216c3.08736-3.15904 8.14592-3.21536 11.30496-0.12288s3.21536 8.14592 0.128 11.29984zM336.39424 593.29536l0.00512 0.00512a7.99744 7.99744 0 0 1-0.00512 11.29984l-33.92 33.91488-0.00512 0.00512a7.9872 7.9872 0 0 1-11.29472-0.00512l-0.00512-0.00512a7.99232 7.99232 0 0 1 0.00512-11.29984l28.2624-28.2624-203.52-203.48928-28.2624 28.24704a7.9872 7.9872 0 1 1-11.30496-11.30496l33.8944-33.87904c0.37376-0.37888 0.78848-0.72192 1.23392-1.01376 0.0768-0.05632 0.16896-0.08704 0.25088-0.13312 0.3584-0.22528 0.72704-0.4352 1.11616-0.59904 0.16896-0.07168 0.35328-0.10752 0.53248-0.16384 0.31744-0.10752 0.62976-0.22528 0.96256-0.29184a8.00256 8.00256 0 0 1 7.26016 2.21184l214.77888 214.75328 0.01536 0.01024z"  horiz-adv-x="1024" />

    
    <glyph glyph-name="dianhua1" unicode="&#58888;" d="M758.29-50.71A104.23 104.23 0 0 0 734-47.9C575.71-10.19 430.83 71 314.91 186.89s-197.09 260.8-234.79 419c-8.69 36.61 2.94 76.3 30.32 103.68L196.86 796a77.73 77.73 0 0 0 109.77 0l146.1-146.09a77.73 77.73 0 0 0 0-109.77L380.67 468c-5.34-5.34-6-13.69-1.64-20.32a669.44 669.44 0 0 1 196.54-196.59c6.77-4.45 15.19-3.7 20.46 1.57l72.13 72.06a77.73 77.73 0 0 0 109.77 0L924 178.61a77.73 77.73 0 0 0 0-109.77l-86.4-86.42a112.93 112.93 0 0 0-79.31-33.13zM251.74 748.66a7.75 7.75 0 0 1-5.34-2.19L160 660c-10.33-10.33-14.78-24.84-11.7-37.91C183 476.57 257.7 343.2 364.45 236.44S604.59 55 750.21 20.26c12.8-3.08 27.58 1.37 37.84 11.7l86.43 86.43a7.56 7.56 0 0 1 0 10.68l-146.1 146.1a7.69 7.69 0 0 1-10.68 0l-72.13-72.06c-28.54-28.61-74-33.05-108.19-10.81a740.88 740.88 0 0 0-217.13 217.21c-22.24 34-17.66 79.52 10.88 108.06l72.06 72.13c2.53 2.53 2.53 8.14 0 10.68L257.08 746.47a7.75 7.75 0 0 1-5.34 2.19z"  horiz-adv-x="1024" />

    
    <glyph glyph-name="wifi" unicode="&#58901;" d="M956.8 528c-472 417.6-886.4 1.6-889.6-3.2-12.8-12.8-11.2-33.6 0-44.8 6.4-6.4 14.4-9.6 22.4-9.6 8 0 16 3.2 22.4 9.6 16 16 376 377.6 801.6 0 12.8-11.2 33.6-11.2 44.8 3.2 12.8 12.8 11.2 33.6-1.6 44.8zM193.6 382.4c-11.2-12.8-11.2-33.6 1.6-44.8 6.4-4.8 14.4-8 20.8-8 8 0 17.6 3.2 24 11.2 9.6 11.2 249.6 267.2 548.8 1.6 12.8-11.2 33.6-11.2 44.8 3.2 11.2 12.8 11.2 33.6-3.2 44.8-344 305.6-633.6-4.8-636.8-8zM502.4 332.8c-108.8-4.8-182.4-91.2-185.6-96-11.2-14.4-9.6-33.6 4.8-44.8 12.8-11.2 33.6-9.6 44.8 4.8 0 0 59.2 70.4 139.2 72 51.2 1.6 100.8-24 150.4-73.6 6.4-6.4 14.4-9.6 22.4-9.6 8 0 16 3.2 22.4 9.6 12.8 12.8 12.8 32 1.6 44.8-62.4 64-129.6 96-200 92.8zM448 97.6a4 4 0 1 1 128 0 4 4 0 1 1-128 0z"  horiz-adv-x="1024" />

    
    </font>
</defs>
</svg>
